<?xml version="1.0" standalone="yes"?>

<svg version="1.1" viewBox="0.0 0.0 668.0577427821522 449.9711286089239" fill="none" stroke="none" stroke-linecap="square" stroke-miterlimit="10" xmlns="http://www.w3.org/2000/svg" xmlns:xlink="http://www.w3.org/1999/xlink"><clipPath id="p.0"><path d="m0 0l668.05774 0l0 449.97113l-668.05774 0l0 -449.97113z" clip-rule="nonzero"></path></clipPath><g clip-path="url(#p.0)"><path fill="#000000" fill-opacity="0.0" d="m0 0l668.05774 0l0 449.97113l-668.05774 0z" fill-rule="evenodd"></path><path fill="#ffffff" d="m7.3622046 150.0l143.55907 0l0 143.55905l-143.55907 0z" fill-rule="evenodd"></path><path stroke="#000000" stroke-width="1.0" stroke-linejoin="round" stroke-linecap="butt" stroke-dasharray="8.0,3.0" d="m7.3622046 150.0l143.55907 0l0 143.55905l-143.55907 0z" fill-rule="evenodd"></path><path fill="#000000" fill-opacity="0.0" d="m15.362205 158.0l61.196846 0l0 60.094482l-61.196846 0z" fill-rule="evenodd"></path><path fill="#000000" d="m46.402035 176.04813l0 7.328125l-0.578125 0q-0.28125 -2.109375 -1.015625 -3.359375q-0.71875 -1.25 -2.0625 -1.984375q-1.34375 -0.734375 -2.78125 -0.734375q-1.625 0 -2.6875 1.0q-1.0625 0.984375 -1.0625 2.25q0 0.96875 0.671875 1.765625q0.96875 1.171875 4.609375 3.125q2.96875 1.59375 4.046875 2.453125q1.09375 0.84375 1.671875 2.0q0.5937538 1.15625 0.5937538 2.421875q0 2.40625 -1.8750038 4.15625q-1.859375 1.734375 -4.796875 1.734375q-0.921875 0 -1.734375 -0.140625q-0.484375 -0.078125 -2.015625 -0.5625q-1.515625 -0.5 -1.921875 -0.5q-0.390625 0 -0.625 0.234375q-0.21875 0.234375 -0.328125 0.96875l-0.578125 0l0 -7.265625l0.578125 0q0.40625 2.28125 1.09375 3.421875q0.6875 1.125 2.09375 1.875q1.421875 0.75 3.109375 0.75q1.953125 0 3.078125 -1.03125q1.140625 -1.03125 1.140625 -2.4375q0 -0.78125 -0.4375 -1.578125q-0.421875 -0.796875 -1.328125 -1.484375q-0.609375 -0.46875 -3.328125 -1.984375q-2.71875 -1.53125 -3.875 -2.4375q-1.140625 -0.90625 -1.734375 -2.0q-0.59375 -1.09375 -0.59375 -2.40625q0 -2.28125 1.75 -3.921875q1.75 -1.65625 4.453125 -1.65625q1.6875 0 3.578125 0.828125q0.875 0.390625 1.234375 0.390625q0.40625 0 0.65625 -0.234375q0.265625 -0.25 0.421875 -0.984375l0.578125 0z" fill-rule="nonzero"></path><path fill="#000000" d="m51.99579 197.17313l3.375 -1.640625l0.34375 0l0 11.734375q0 1.171875 0.09375 1.46875q0.09375 0.28125 0.40625 0.4375q0.3125 0.140625 1.25 0.171875l0 0.375l-5.234375 0l0 -0.375q0.984375 -0.03125 1.265625 -0.171875q0.296875 -0.15625 0.40625 -0.40625q0.109375 -0.25 0.109375 -1.5l0 -7.5q0 -1.515625 -0.09375 -1.953125q-0.078125 -0.328125 -0.265625 -0.484375q-0.1875 -0.15625 -0.453125 -0.15625q-0.375 0 -1.0625 0.328125l-0.140625 -0.328125z" fill-rule="nonzero"></path><path fill="#000000" fill-opacity="0.0" d="m81.72441 158.0l61.196854 0l0 60.094482l-61.196854 0z" fill-rule="evenodd"></path><path fill="#000000" d="m112.764244 176.04813l0 7.328125l-0.578125 0q-0.28125 -2.109375 -1.015625 -3.359375q-0.71875 -1.25 -2.0625 -1.984375q-1.34375 -0.734375 -2.78125 -0.734375q-1.625 0 -2.6875 1.0q-1.0625 0.984375 -1.0625 2.25q0 0.96875 0.671875 1.765625q0.96875 1.171875 4.609375 3.125q2.96875 1.59375 4.046875 2.453125q1.09375 0.84375 1.671875 2.0q0.59375 1.15625 0.59375 2.421875q0 2.40625 -1.875 4.15625q-1.859375 1.734375 -4.796875 1.734375q-0.921875 0 -1.734375 -0.140625q-0.484375 -0.078125 -2.015625 -0.5625q-1.515625 -0.5 -1.921875 -0.5q-0.390625 0 -0.625 0.234375q-0.21875 0.234375 -0.328125 0.96875l-0.578125 0l0 -7.265625l0.578125 0q0.40625 2.28125 1.09375 3.421875q0.6875 1.125 2.09375 1.875q1.421875 0.75 3.109375 0.75q1.953125 0 3.078125 -1.03125q1.140625 -1.03125 1.140625 -2.4375q0 -0.78125 -0.4375 -1.578125q-0.421875 -0.796875 -1.328125 -1.484375q-0.609375 -0.46875 -3.328125 -1.984375q-2.71875 -1.53125 -3.875 -2.4375q-1.140625 -0.90625 -1.734375 -2.0q-0.59375 -1.09375 -0.59375 -2.40625q0 -2.28125 1.75 -3.921875q1.75 -1.65625 4.453125 -1.65625q1.6875 0 3.578125 0.828125q0.875 0.390625 1.234375 0.390625q0.40625 0 0.65625 -0.234375q0.265625 -0.25 0.421875 -0.984375l0.578125 0z" fill-rule="nonzero"></path><path fill="#000000" d="m125.514244 207.04813l-0.96875 2.671875l-8.203125 0l0 -0.375q3.625 -3.3125 5.09375 -5.390625q1.484375 -2.09375 1.484375 -3.828125q0 -1.328125 -0.8125 -2.171875q-0.8125 -0.859375 -1.9375 -0.859375q-1.03125 0 -1.84375 0.609375q-0.8125 0.59375 -1.203125 1.75l-0.390625 0q0.265625 -1.890625 1.328125 -2.90625q1.0625 -1.015625 2.640625 -1.015625q1.703125 0 2.828125 1.09375q1.140625 1.078125 1.140625 2.546875q0 1.0625 -0.5 2.125q-0.75 1.65625 -2.453125 3.515625q-2.5625 2.78125 -3.1875 3.359375l3.625 0q1.109375 0 1.546875 -0.078125q0.453125 -0.09375 0.8125 -0.34375q0.359375 -0.25 0.625 -0.703125l0.375 0z" fill-rule="nonzero"></path><path fill="#000000" fill-opacity="0.0" d="m81.72441 225.46457l61.196854 0l0 60.094482l-61.196854 0z" fill-rule="evenodd"></path><path fill="#000000" d="m106.01034 259.96582l0.6875 0q0.171875 2.140625 1.34375 3.28125q1.171875 1.140625 3.5 1.359375l0 -9.125q-3.515625 -2.171875 -4.6875 -3.84375q-0.828125 -1.1875 -0.828125 -2.890625q0 -1.921875 1.421875 -3.359375q1.4375 -1.4375 4.09375 -1.734375l0 -1.4375l1.0 0l0 1.4375q1.28125 0.078125 2.15625 0.296875q0.453125 0.109375 3.0 1.078125l0 4.671875l-0.609375 0q-0.203125 -2.484375 -1.296875 -3.625q-1.078125 -1.15625 -3.25 -1.375l0 7.9375q3.9375 2.75 5.046875 4.0625q1.125 1.296875 1.125 3.234375q0 2.15625 -1.640625 3.796875q-1.625 1.640625 -4.53125 1.890625l0 2.0l-1.0 0l0 -2.0q-1.46875 -0.0625 -2.734375 -0.34375q-1.265625 -0.265625 -2.796875 -0.890625l0 -4.421875zm5.53125 -7.984375l0 -7.265625q-1.5625 0.1875 -2.328125 1.0q-0.75 0.796875 -0.75 2.015625q0 1.140625 0.6875 2.140625q0.6875 0.984375 2.390625 2.109375zm1.0 12.625q1.171875 -0.203125 1.796875 -0.578125q0.875 -0.546875 1.375 -1.421875q0.515625 -0.890625 0.515625 -1.890625q0 -1.03125 -0.625 -1.953125q-0.609375 -0.921875 -3.0625 -2.609375l0 8.453125z" fill-rule="nonzero"></path><path fill="#000000" fill-opacity="0.0" d="m15.362205 225.46457l61.196846 0l0 60.094482l-61.196846 0z" fill-rule="evenodd"></path><path fill="#000000" d="m52.976257 251.04395l-3.046875 10.59375l-0.34375 1.421875q-0.046875 0.203125 -0.046875 0.34375q0 0.25 0.15625 0.4375q0.125 0.140625 0.3125 0.140625q0.203125 0 0.53125 -0.25q0.609375 -0.453125 1.625 -1.875l0.53125 0.375q-1.078125 1.625 -2.21875 2.484375q-1.140625 0.84375 -2.109375 0.84375q-0.671875 0 -1.0156288 -0.34375q-0.328125 -0.328125 -0.328125 -0.96875q0 -0.765625 0.3437538 -2.015625l0.328125 -1.171875q-2.0468788 2.671875 -3.7656288 3.734375q-1.234375 0.765625 -2.421875 0.765625q-1.140625 0 -1.96875 -0.9375q-0.828125 -0.953125 -0.828125 -2.609375q0 -2.484375 1.484375 -5.234375q1.5 -2.765625 3.796875 -4.421875q1.796875 -1.3125 3.3906288 -1.3125q0.953125 0 1.578125 0.5q0.640625 0.5 0.96875 1.65625l0.5625 -1.78125l2.484375 -0.375zm-5.5625 0.8125q-1.0000038 0 -2.1250038 0.9375q-1.59375 1.328125 -2.84375 3.9375q-1.234375 2.609375 -1.234375 4.71875q0 1.0625 0.53125 1.6875q0.53125 0.609375 1.21875 0.609375q1.703125 0 3.703125 -2.515625q2.6718788 -3.34375 2.6718788 -6.859375q0 -1.328125 -0.515625 -1.921875q-0.515625 -0.59375 -1.40625 -0.59375z" fill-rule="nonzero"></path><path fill="#ffffff" d="m150.92126 150.0l143.55905 0l0 143.55905l-143.55905 0z" fill-rule="evenodd"></path><path stroke="#000000" stroke-width="1.0" stroke-linejoin="round" stroke-linecap="butt" stroke-dasharray="8.0,3.0" d="m150.92126 150.0l143.55905 0l0 143.55905l-143.55905 0z" fill-rule="evenodd"></path><path fill="#000000" fill-opacity="0.0" d="m158.92126 158.0l61.19684 0l0 60.094482l-61.19684 0z" fill-rule="evenodd"></path><path fill="#000000" d="m189.96109 176.04813l0 7.328125l-0.578125 0q-0.28125 -2.109375 -1.015625 -3.359375q-0.71875 -1.25 -2.0625 -1.984375q-1.34375 -0.734375 -2.78125 -0.734375q-1.625 0 -2.6875 1.0q-1.0625 0.984375 -1.0625 2.25q0 0.96875 0.671875 1.765625q0.96875 1.171875 4.609375 3.125q2.96875 1.59375 4.046875 2.453125q1.09375 0.84375 1.671875 2.0q0.59375 1.15625 0.59375 2.421875q0 2.40625 -1.875 4.15625q-1.859375 1.734375 -4.796875 1.734375q-0.921875 0 -1.734375 -0.140625q-0.484375 -0.078125 -2.015625 -0.5625q-1.515625 -0.5 -1.921875 -0.5q-0.390625 0 -0.625 0.234375q-0.21875 0.234375 -0.328125 0.96875l-0.578125 0l0 -7.265625l0.578125 0q0.40625 2.28125 1.09375 3.421875q0.6875 1.125 2.09375 1.875q1.421875 0.75 3.109375 0.75q1.953125 0 3.078125 -1.03125q1.140625 -1.03125 1.140625 -2.4375q0 -0.78125 -0.4375 -1.578125q-0.421875 -0.796875 -1.328125 -1.484375q-0.609375 -0.46875 -3.328125 -1.984375q-2.71875 -1.53125 -3.875 -2.4375q-1.140625 -0.90625 -1.734375 -2.0q-0.59375 -1.09375 -0.59375 -2.40625q0 -2.28125 1.75 -3.921875q1.75 -1.65625 4.453125 -1.65625q1.6875 0 3.578125 0.828125q0.875 0.390625 1.234375 0.390625q0.40625 0 0.65625 -0.234375q0.265625 -0.25 0.421875 -0.984375l0.578125 0z" fill-rule="nonzero"></path><path fill="#000000" d="m195.55484 197.17313l3.375 -1.640625l0.34375 0l0 11.734375q0 1.171875 0.09375 1.46875q0.09375 0.28125 0.40625 0.4375q0.3125 0.140625 1.25 0.171875l0 0.375l-5.234375 0l0 -0.375q0.984375 -0.03125 1.265625 -0.171875q0.296875 -0.15625 0.40625 -0.40625q0.109375 -0.25 0.109375 -1.5l0 -7.5q0 -1.515625 -0.09375 -1.953125q-0.078125 -0.328125 -0.265625 -0.484375q-0.1875 -0.15625 -0.453125 -0.15625q-0.375 0 -1.0625 0.328125l-0.140625 -0.328125z" fill-rule="nonzero"></path><path fill="#000000" fill-opacity="0.0" d="m225.28346 158.0l61.196854 0l0 60.094482l-61.196854 0z" fill-rule="evenodd"></path><path fill="#000000" d="m256.3233 176.04813l0 7.328125l-0.578125 0q-0.28125 -2.109375 -1.015625 -3.359375q-0.71875 -1.25 -2.0625 -1.984375q-1.34375 -0.734375 -2.78125 -0.734375q-1.625 0 -2.6875 1.0q-1.0625 0.984375 -1.0625 2.25q0 0.96875 0.671875 1.765625q0.96875 1.171875 4.609375 3.125q2.96875 1.59375 4.046875 2.453125q1.09375 0.84375 1.671875 2.0q0.59375 1.15625 0.59375 2.421875q0 2.40625 -1.875 4.15625q-1.859375 1.734375 -4.796875 1.734375q-0.921875 0 -1.734375 -0.140625q-0.484375 -0.078125 -2.015625 -0.5625q-1.515625 -0.5 -1.921875 -0.5q-0.390625 0 -0.625 0.234375q-0.21875 0.234375 -0.328125 0.96875l-0.578125 0l0 -7.265625l0.578125 0q0.40625 2.28125 1.09375 3.421875q0.6875 1.125 2.09375 1.875q1.421875 0.75 3.109375 0.75q1.953125 0 3.078125 -1.03125q1.140625 -1.03125 1.140625 -2.4375q0 -0.78125 -0.4375 -1.578125q-0.421875 -0.796875 -1.328125 -1.484375q-0.609375 -0.46875 -3.328125 -1.984375q-2.71875 -1.53125 -3.875 -2.4375q-1.140625 -0.90625 -1.734375 -2.0q-0.59375 -1.09375 -0.59375 -2.40625q0 -2.28125 1.75 -3.921875q1.75 -1.65625 4.453125 -1.65625q1.6875 0 3.578125 0.828125q0.875 0.390625 1.234375 0.390625q0.40625 0 0.65625 -0.234375q0.265625 -0.25 0.421875 -0.984375l0.578125 0z" fill-rule="nonzero"></path><path fill="#000000" d="m269.0733 207.04813l-0.96875 2.671875l-8.203125 0l0 -0.375q3.625 -3.3125 5.09375 -5.390625q1.484375 -2.09375 1.484375 -3.828125q0 -1.328125 -0.8125 -2.171875q-0.8125 -0.859375 -1.9375 -0.859375q-1.03125 0 -1.84375 0.609375q-0.8125 0.59375 -1.203125 1.75l-0.390625 0q0.265625 -1.890625 1.328125 -2.90625q1.0625 -1.015625 2.640625 -1.015625q1.703125 0 2.828125 1.09375q1.140625 1.078125 1.140625 2.546875q0 1.0625 -0.5 2.125q-0.75 1.65625 -2.453125 3.515625q-2.5625 2.78125 -3.1875 3.359375l3.625 0q1.109375 0 1.546875 -0.078125q0.453125 -0.09375 0.8125 -0.34375q0.359375 -0.25 0.625 -0.703125l0.375 0z" fill-rule="nonzero"></path><path fill="#000000" fill-opacity="0.0" d="m225.28346 225.46457l61.196854 0l0 60.094482l-61.196854 0z" fill-rule="evenodd"></path><path fill="#000000" d="m262.89752 251.04395l-3.046875 10.59375l-0.34375 1.421875q-0.046875 0.203125 -0.046875 0.34375q0 0.25 0.15625 0.4375q0.125 0.140625 0.3125 0.140625q0.203125 0 0.53125 -0.25q0.609375 -0.453125 1.625 -1.875l0.53125 0.375q-1.078125 1.625 -2.21875 2.484375q-1.140625 0.84375 -2.109375 0.84375q-0.671875 0 -1.015625 -0.34375q-0.328125 -0.328125 -0.328125 -0.96875q0 -0.765625 0.34375 -2.015625l0.328125 -1.171875q-2.046875 2.671875 -3.765625 3.734375q-1.234375 0.765625 -2.421875 0.765625q-1.140625 0 -1.96875 -0.9375q-0.828125 -0.953125 -0.828125 -2.609375q0 -2.484375 1.484375 -5.234375q1.5 -2.765625 3.796875 -4.421875q1.796875 -1.3125 3.390625 -1.3125q0.953125 0 1.578125 0.5q0.640625 0.5 0.96875 1.65625l0.5625 -1.78125l2.484375 -0.375zm-5.5625 0.8125q-1.0 0 -2.125 0.9375q-1.59375 1.328125 -2.84375 3.9375q-1.234375 2.609375 -1.234375 4.71875q0 1.0625 0.53125 1.6875q0.53125 0.609375 1.21875 0.609375q1.703125 0 3.703125 -2.515625q2.671875 -3.34375 2.671875 -6.859375q0 -1.328125 -0.515625 -1.921875q-0.515625 -0.59375 -1.40625 -0.59375z" fill-rule="nonzero"></path><path fill="#000000" fill-opacity="0.0" d="m158.92126 225.46457l61.19684 0l0 60.094482l-61.19684 0z" fill-rule="evenodd"></path><path fill="#000000" d="m183.20718 259.96582l0.6875 0q0.171875 2.140625 1.34375 3.28125q1.171875 1.140625 3.5 1.359375l0 -9.125q-3.515625 -2.171875 -4.6875 -3.84375q-0.828125 -1.1875 -0.828125 -2.890625q0 -1.921875 1.421875 -3.359375q1.4375 -1.4375 4.09375 -1.734375l0 -1.4375l1.0 0l0 1.4375q1.28125 0.078125 2.15625 0.296875q0.453125 0.109375 3.0 1.078125l0 4.671875l-0.609375 0q-0.203125 -2.484375 -1.296875 -3.625q-1.078125 -1.15625 -3.25 -1.375l0 7.9375q3.9375 2.75 5.046875 4.0625q1.125 1.296875 1.125 3.234375q0 2.15625 -1.640625 3.796875q-1.625 1.640625 -4.53125 1.890625l0 2.0l-1.0 0l0 -2.0q-1.46875 -0.0625 -2.734375 -0.34375q-1.265625 -0.265625 -2.796875 -0.890625l0 -4.421875zm5.53125 -7.984375l0 -7.265625q-1.5625 0.1875 -2.328125 1.0q-0.75 0.796875 -0.75 2.015625q0 1.140625 0.6875 2.140625q0.6875 0.984375 2.390625 2.109375zm1.0 12.625q1.171875 -0.203125 1.796875 -0.578125q0.875 -0.546875 1.375 -1.421875q0.515625 -0.890625 0.515625 -1.890625q0 -1.03125 -0.625 -1.953125q-0.609375 -0.921875 -3.0625 -2.609375l0 8.453125z" fill-rule="nonzero"></path><path fill="#ffffff" d="m150.92126 6.4409447l143.55905 0l0 143.55905l-143.55905 0z" fill-rule="evenodd"></path><path stroke="#000000" stroke-width="1.0" stroke-linejoin="round" stroke-linecap="butt" stroke-dasharray="8.0,3.0" d="m150.92126 6.4409447l143.55905 0l0 143.55905l-143.55905 0z" fill-rule="evenodd"></path><path fill="#000000" fill-opacity="0.0" d="m158.92126 14.440945l61.19684 0l0 60.094486l-61.19684 0z" fill-rule="evenodd"></path><path fill="#000000" d="m189.96109 32.48907l0 7.328125l-0.578125 0q-0.28125 -2.109375 -1.015625 -3.359375q-0.71875 -1.25 -2.0625 -1.984375q-1.34375 -0.734375 -2.78125 -0.734375q-1.625 0 -2.6875 1.0q-1.0625 0.984375 -1.0625 2.25q0 0.96875 0.671875 1.765625q0.96875 1.171875 4.609375 3.125q2.96875 1.59375 4.046875 2.453125q1.09375 0.84375 1.671875 2.0q0.59375 1.15625 0.59375 2.421875q0 2.40625 -1.875 4.15625q-1.859375 1.734375 -4.796875 1.734375q-0.921875 0 -1.734375 -0.140625q-0.484375 -0.078125 -2.015625 -0.5625q-1.515625 -0.5 -1.921875 -0.5q-0.390625 0 -0.625 0.234375q-0.21875 0.234375 -0.328125 0.96875l-0.578125 0l0 -7.265625l0.578125 0q0.40625 2.28125 1.09375 3.421875q0.6875 1.125 2.09375 1.875q1.421875 0.75 3.109375 0.75q1.953125 0 3.078125 -1.03125q1.140625 -1.03125 1.140625 -2.4375q0 -0.78125 -0.4375 -1.578125q-0.421875 -0.796875 -1.328125 -1.484375q-0.609375 -0.46875 -3.328125 -1.984375q-2.71875 -1.53125 -3.875 -2.4375q-1.140625 -0.90625 -1.734375 -2.0q-0.59375 -1.09375 -0.59375 -2.40625q0 -2.28125 1.75 -3.921875q1.75 -1.65625 4.453125 -1.65625q1.6875 0 3.578125 0.828125q0.875 0.390625 1.234375 0.390625q0.40625 0 0.65625 -0.234375q0.265625 -0.25 0.421875 -0.984375l0.578125 0z" fill-rule="nonzero"></path><path fill="#000000" d="m195.55484 53.61407l3.375 -1.640625l0.34375 0l0 11.734375q0 1.1718788 0.09375 1.4687538q0.09375 0.28125 0.40625 0.4375q0.3125 0.140625 1.25 0.171875l0 0.375l-5.234375 0l0 -0.375q0.984375 -0.03125 1.265625 -0.171875q0.296875 -0.15625 0.40625 -0.40625q0.109375 -0.25 0.109375 -1.5000038l0 -7.5q0 -1.515625 -0.09375 -1.953125q-0.078125 -0.328125 -0.265625 -0.484375q-0.1875 -0.15625 -0.453125 -0.15625q-0.375 0 -1.0625 0.328125l-0.140625 -0.328125z" fill-rule="nonzero"></path><path fill="#000000" fill-opacity="0.0" d="m225.28346 14.440945l61.196854 0l0 60.094486l-61.196854 0z" fill-rule="evenodd"></path><path fill="#000000" d="m249.5694 48.942196l0.6875 0q0.171875 2.140625 1.34375 3.28125q1.171875 1.140625 3.5 1.359375l0 -9.125q-3.515625 -2.171875 -4.6875 -3.84375q-0.828125 -1.1875 -0.828125 -2.890625q0 -1.921875 1.421875 -3.359375q1.4375 -1.4375 4.09375 -1.734375l0 -1.4375l1.0 0l0 1.4375q1.28125 0.078125 2.15625 0.296875q0.453125 0.109375 3.0 1.078125l0 4.671875l-0.609375 0q-0.203125 -2.484375 -1.296875 -3.625q-1.078125 -1.15625 -3.25 -1.375l0 7.9375q3.9375 2.75 5.046875 4.0625q1.125 1.296875 1.125 3.234375q0 2.15625 -1.640625 3.796875q-1.625 1.640625 -4.53125 1.890625l0 2.0l-1.0 0l0 -2.0q-1.46875 -0.0625 -2.734375 -0.34375q-1.265625 -0.265625 -2.796875 -0.890625l0 -4.421875zm5.53125 -7.984375l0 -7.265625q-1.5625 0.1875 -2.328125 1.0q-0.75 0.796875 -0.75 2.015625q0 1.140625 0.6875 2.140625q0.6875 0.984375 2.390625 2.109375zm1.0 12.625q1.171875 -0.203125 1.796875 -0.578125q0.875 -0.546875 1.375 -1.421875q0.515625 -0.890625 0.515625 -1.890625q0 -1.03125 -0.625 -1.953125q-0.609375 -0.921875 -3.0625 -2.609375l0 8.453125z" fill-rule="nonzero"></path><path fill="#000000" fill-opacity="0.0" d="m225.28346 81.90551l61.196854 0l0 60.09449l-61.196854 0z" fill-rule="evenodd"></path><path fill="#000000" d="m256.3233 99.953636l0 7.328125l-0.578125 0q-0.28125 -2.109375 -1.015625 -3.359375q-0.71875 -1.25 -2.0625 -1.984375q-1.34375 -0.734375 -2.78125 -0.734375q-1.625 0 -2.6875 1.0q-1.0625 0.984375 -1.0625 2.25q0 0.96875 0.671875 1.765625q0.96875 1.171875 4.609375 3.125q2.96875 1.59375 4.046875 2.453125q1.09375 0.84375 1.671875 2.0q0.59375 1.15625 0.59375 2.421875q0 2.40625 -1.875 4.15625q-1.859375 1.734375 -4.796875 1.734375q-0.921875 0 -1.734375 -0.140625q-0.484375 -0.078125 -2.015625 -0.5625q-1.515625 -0.5 -1.921875 -0.5q-0.390625 0 -0.625 0.234375q-0.21875 0.234375 -0.328125 0.96875l-0.578125 0l0 -7.265625l0.578125 0q0.40625 2.28125 1.09375 3.421875q0.6875 1.125 2.09375 1.875q1.421875 0.75 3.109375 0.75q1.953125 0 3.078125 -1.03125q1.140625 -1.03125 1.140625 -2.4375q0 -0.78125 -0.4375 -1.578125q-0.421875 -0.796875 -1.328125 -1.484375q-0.609375 -0.46875 -3.328125 -1.984375q-2.71875 -1.53125 -3.875 -2.4375q-1.140625 -0.90625 -1.734375 -2.0q-0.59375 -1.09375 -0.59375 -2.40625q0 -2.28125 1.75 -3.921875q1.75 -1.65625 4.453125 -1.65625q1.6875 0 3.578125 0.828125q0.875 0.390625 1.234375 0.390625q0.40625 0 0.65625 -0.234375q0.265625 -0.25 0.421875 -0.984375l0.578125 0z" fill-rule="nonzero"></path><path fill="#000000" d="m269.0733 130.95364l-0.96875 2.671875l-8.203125 0l0 -0.375q3.625 -3.3125 5.09375 -5.3906326q1.484375 -2.09375 1.484375 -3.828125q0 -1.328125 -0.8125 -2.171875q-0.8125 -0.859375 -1.9375 -0.859375q-1.03125 0 -1.84375 0.609375q-0.8125 0.59375 -1.203125 1.75l-0.390625 0q0.265625 -1.890625 1.328125 -2.90625q1.0625 -1.015625 2.640625 -1.015625q1.703125 0 2.828125 1.09375q1.140625 1.078125 1.140625 2.546875q0 1.0625 -0.5 2.125q-0.75 1.65625 -2.453125 3.5156326q-2.5625 2.78125 -3.1875 3.359375l3.625 0q1.109375 0 1.546875 -0.078125q0.453125 -0.09375 0.8125 -0.34375q0.359375 -0.25 0.625 -0.703125l0.375 0z" fill-rule="nonzero"></path><path fill="#000000" fill-opacity="0.0" d="m158.92126 81.90551l61.19684 0l0 60.09449l-61.19684 0z" fill-rule="evenodd"></path><path fill="#000000" d="m196.53531 107.484886l-3.046875 10.59375l-0.34375 1.421875q-0.046875 0.203125 -0.046875 0.34375q0 0.25 0.15625 0.4375q0.125 0.140625 0.3125 0.140625q0.203125 0 0.53125 -0.25q0.609375 -0.453125 1.625 -1.875l0.53125 0.375q-1.078125 1.625 -2.21875 2.484375q-1.140625 0.84375 -2.109375 0.84375q-0.671875 0 -1.015625 -0.34375q-0.328125 -0.328125 -0.328125 -0.96875q0 -0.765625 0.34375 -2.015625l0.328125 -1.171875q-2.046875 2.671875 -3.765625 3.734375q-1.234375 0.765625 -2.421875 0.765625q-1.140625 0 -1.96875 -0.9375q-0.828125 -0.953125 -0.828125 -2.609375q0 -2.484375 1.484375 -5.234375q1.5 -2.765625 3.796875 -4.421875q1.796875 -1.3125 3.390625 -1.3125q0.953125 0 1.578125 0.5q0.640625 0.5 0.96875 1.65625l0.5625 -1.78125l2.484375 -0.375zm-5.5625 0.8125q-1.0 0 -2.125 0.9375q-1.59375 1.328125 -2.84375 3.9375q-1.234375 2.609375 -1.234375 4.71875q0 1.0625 0.53125 1.6875q0.53125 0.609375 1.21875 0.609375q1.703125 0 3.703125 -2.515625q2.671875 -3.34375 2.671875 -6.859375q0 -1.328125 -0.515625 -1.921875q-0.515625 -0.59375 -1.40625 -0.59375z" fill-rule="nonzero"></path><path fill="#ffffff" d="m150.92126 293.55905l143.55905 0l0 143.55905l-143.55905 0z" fill-rule="evenodd"></path><path stroke="#000000" stroke-width="1.0" stroke-linejoin="round" stroke-linecap="butt" stroke-dasharray="8.0,3.0" d="m150.92126 293.55905l143.55905 0l0 143.55905l-143.55905 0z" fill-rule="evenodd"></path><path fill="#000000" fill-opacity="0.0" d="m158.92126 301.55905l61.19684 0l0 60.094482l-61.19684 0z" fill-rule="evenodd"></path><path fill="#000000" d="m189.96109 319.60718l0 7.328125l-0.578125 0q-0.28125 -2.109375 -1.015625 -3.359375q-0.71875 -1.25 -2.0625 -1.984375q-1.34375 -0.734375 -2.78125 -0.734375q-1.625 0 -2.6875 1.0q-1.0625 0.984375 -1.0625 2.25q0 0.96875 0.671875 1.765625q0.96875 1.171875 4.609375 3.125q2.96875 1.59375 4.046875 2.453125q1.09375 0.84375 1.671875 2.0q0.59375 1.15625 0.59375 2.421875q0 2.40625 -1.875 4.15625q-1.859375 1.734375 -4.796875 1.734375q-0.921875 0 -1.734375 -0.140625q-0.484375 -0.078125 -2.015625 -0.5625q-1.515625 -0.5 -1.921875 -0.5q-0.390625 0 -0.625 0.234375q-0.21875 0.234375 -0.328125 0.96875l-0.578125 0l0 -7.265625l0.578125 0q0.40625 2.28125 1.09375 3.421875q0.6875 1.125 2.09375 1.875q1.421875 0.75 3.109375 0.75q1.953125 0 3.078125 -1.03125q1.140625 -1.03125 1.140625 -2.4375q0 -0.78125 -0.4375 -1.578125q-0.421875 -0.796875 -1.328125 -1.484375q-0.609375 -0.46875 -3.328125 -1.984375q-2.71875 -1.53125 -3.875 -2.4375q-1.140625 -0.90625 -1.734375 -2.0q-0.59375 -1.09375 -0.59375 -2.40625q0 -2.28125 1.75 -3.921875q1.75 -1.65625 4.453125 -1.65625q1.6875 0 3.578125 0.828125q0.875 0.390625 1.234375 0.390625q0.40625 0 0.65625 -0.234375q0.265625 -0.25 0.421875 -0.984375l0.578125 0z" fill-rule="nonzero"></path><path fill="#000000" d="m195.55484 340.73218l3.375 -1.640625l0.34375 0l0 11.734375q0 1.171875 0.09375 1.46875q0.09375 0.28125 0.40625 0.4375q0.3125 0.140625 1.25 0.171875l0 0.375l-5.234375 0l0 -0.375q0.984375 -0.03125 1.265625 -0.171875q0.296875 -0.15625 0.40625 -0.40625q0.109375 -0.25 0.109375 -1.5l0 -7.5q0 -1.515625 -0.09375 -1.953125q-0.078125 -0.328125 -0.265625 -0.484375q-0.1875 -0.15625 -0.453125 -0.15625q-0.375 0 -1.0625 0.328125l-0.140625 -0.328125z" fill-rule="nonzero"></path><path fill="#000000" fill-opacity="0.0" d="m225.28346 301.55905l61.196854 0l0 60.094482l-61.196854 0z" fill-rule="evenodd"></path><path fill="#000000" d="m262.89752 327.13843l-3.046875 10.59375l-0.34375 1.421875q-0.046875 0.203125 -0.046875 0.34375q0 0.25 0.15625 0.4375q0.125 0.140625 0.3125 0.140625q0.203125 0 0.53125 -0.25q0.609375 -0.453125 1.625 -1.875l0.53125 0.375q-1.078125 1.625 -2.21875 2.484375q-1.140625 0.84375 -2.109375 0.84375q-0.671875 0 -1.015625 -0.34375q-0.328125 -0.328125 -0.328125 -0.96875q0 -0.765625 0.34375 -2.015625l0.328125 -1.171875q-2.046875 2.671875 -3.765625 3.734375q-1.234375 0.765625 -2.421875 0.765625q-1.140625 0 -1.96875 -0.9375q-0.828125 -0.953125 -0.828125 -2.609375q0 -2.484375 1.484375 -5.234375q1.5 -2.765625 3.796875 -4.421875q1.796875 -1.3125 3.390625 -1.3125q0.953125 0 1.578125 0.5q0.640625 0.5 0.96875 1.65625l0.5625 -1.78125l2.484375 -0.375zm-5.5625 0.8125q-1.0 0 -2.125 0.9375q-1.59375 1.328125 -2.84375 3.9375q-1.234375 2.609375 -1.234375 4.71875q0 1.0625 0.53125 1.6875q0.53125 0.609375 1.21875 0.609375q1.703125 0 3.703125 -2.515625q2.671875 -3.34375 2.671875 -6.859375q0 -1.328125 -0.515625 -1.921875q-0.515625 -0.59375 -1.40625 -0.59375z" fill-rule="nonzero"></path><path fill="#000000" fill-opacity="0.0" d="m225.28346 369.02362l61.196854 0l0 60.094482l-61.196854 0z" fill-rule="evenodd"></path><path fill="#000000" d="m256.3233 387.07175l0 7.328125l-0.578125 0q-0.28125 -2.109375 -1.015625 -3.359375q-0.71875 -1.25 -2.0625 -1.984375q-1.34375 -0.734375 -2.78125 -0.734375q-1.625 0 -2.6875 1.0q-1.0625 0.984375 -1.0625 2.25q0 0.96875 0.671875 1.765625q0.96875 1.171875 4.609375 3.125q2.96875 1.59375 4.046875 2.453125q1.09375 0.84375 1.671875 2.0q0.59375 1.15625 0.59375 2.421875q0 2.40625 -1.875 4.15625q-1.859375 1.734375 -4.796875 1.734375q-0.921875 0 -1.734375 -0.140625q-0.484375 -0.078125 -2.015625 -0.5625q-1.515625 -0.5 -1.921875 -0.5q-0.390625 0 -0.625 0.234375q-0.21875 0.234375 -0.328125 0.96875l-0.578125 0l0 -7.265625l0.578125 0q0.40625 2.28125 1.09375 3.421875q0.6875 1.125 2.09375 1.875q1.421875 0.75 3.109375 0.75q1.953125 0 3.078125 -1.03125q1.140625 -1.03125 1.140625 -2.4375q0 -0.78125 -0.4375 -1.578125q-0.421875 -0.796875 -1.328125 -1.484375q-0.609375 -0.46875 -3.328125 -1.984375q-2.71875 -1.53125 -3.875 -2.4375q-1.140625 -0.90625 -1.734375 -2.0q-0.59375 -1.09375 -0.59375 -2.40625q0 -2.28125 1.75 -3.921875q1.75 -1.65625 4.453125 -1.65625q1.6875 0 3.578125 0.828125q0.875 0.390625 1.234375 0.390625q0.40625 0 0.65625 -0.234375q0.265625 -0.25 0.421875 -0.984375l0.578125 0z" fill-rule="nonzero"></path><path fill="#000000" d="m269.0733 418.07175l-0.96875 2.671875l-8.203125 0l0 -0.375q3.625 -3.3125 5.09375 -5.390625q1.484375 -2.09375 1.484375 -3.828125q0 -1.328125 -0.8125 -2.171875q-0.8125 -0.859375 -1.9375 -0.859375q-1.03125 0 -1.84375 0.609375q-0.8125 0.59375 -1.203125 1.75l-0.390625 0q0.265625 -1.890625 1.328125 -2.90625q1.0625 -1.015625 2.640625 -1.015625q1.703125 0 2.828125 1.09375q1.140625 1.078125 1.140625 2.546875q0 1.0625 -0.5 2.125q-0.75 1.65625 -2.453125 3.515625q-2.5625 2.78125 -3.1875 3.359375l3.625 0q1.109375 0 1.546875 -0.078125q0.453125 -0.09375 0.8125 -0.34375q0.359375 -0.25 0.625 -0.703125l0.375 0z" fill-rule="nonzero"></path><path fill="#000000" fill-opacity="0.0" d="m158.92126 369.02362l61.19684 0l0 60.094482l-61.19684 0z" fill-rule="evenodd"></path><path fill="#000000" d="m183.20718 403.52487l0.6875 0q0.171875 2.140625 1.34375 3.28125q1.171875 1.140625 3.5 1.359375l0 -9.125q-3.515625 -2.171875 -4.6875 -3.84375q-0.828125 -1.1875 -0.828125 -2.890625q0 -1.921875 1.421875 -3.359375q1.4375 -1.4375 4.09375 -1.734375l0 -1.4375l1.0 0l0 1.4375q1.28125 0.078125 2.15625 0.296875q0.453125 0.109375 3.0 1.078125l0 4.671875l-0.609375 0q-0.203125 -2.484375 -1.296875 -3.625q-1.078125 -1.15625 -3.25 -1.375l0 7.9375q3.9375 2.75 5.046875 4.0625q1.125 1.296875 1.125 3.234375q0 2.15625 -1.640625 3.796875q-1.625 1.640625 -4.53125 1.890625l0 2.0l-1.0 0l0 -2.0q-1.46875 -0.0625 -2.734375 -0.34375q-1.265625 -0.265625 -2.796875 -0.890625l0 -4.421875zm5.53125 -7.984375l0 -7.265625q-1.5625 0.1875 -2.328125 1.0q-0.75 0.796875 -0.75 2.015625q0 1.140625 0.6875 2.140625q0.6875 0.984375 2.390625 2.109375zm1.0 12.625q1.171875 -0.203125 1.796875 -0.578125q0.875 -0.546875 1.375 -1.421875q0.515625 -0.890625 0.515625 -1.890625q0 -1.03125 -0.625 -1.953125q-0.609375 -0.921875 -3.0625 -2.609375l0 8.453125z" fill-rule="nonzero"></path><path fill="#ffffff" d="m294.48032 150.0l143.55905 0l0 143.55905l-143.55905 0z" fill-rule="evenodd"></path><path stroke="#000000" stroke-width="1.0" stroke-linejoin="round" stroke-linecap="butt" stroke-dasharray="8.0,3.0" d="m294.48032 150.0l143.55905 0l0 143.55905l-143.55905 0z" fill-rule="evenodd"></path><path fill="#000000" fill-opacity="0.0" d="m302.48032 158.0l61.19684 0l0 60.094482l-61.19684 0z" fill-rule="evenodd"></path><path fill="#000000" d="m333.52014 176.04813l0 7.328125l-0.578125 0q-0.28125 -2.109375 -1.015625 -3.359375q-0.71875 -1.25 -2.0625 -1.984375q-1.34375 -0.734375 -2.78125 -0.734375q-1.625 0 -2.6875 1.0q-1.0625 0.984375 -1.0625 2.25q0 0.96875 0.671875 1.765625q0.96875 1.171875 4.609375 3.125q2.96875 1.59375 4.046875 2.453125q1.09375 0.84375 1.671875 2.0q0.59375 1.15625 0.59375 2.421875q0 2.40625 -1.875 4.15625q-1.859375 1.734375 -4.796875 1.734375q-0.921875 0 -1.734375 -0.140625q-0.484375 -0.078125 -2.015625 -0.5625q-1.515625 -0.5 -1.921875 -0.5q-0.390625 0 -0.625 0.234375q-0.21875 0.234375 -0.328125 0.96875l-0.578125 0l0 -7.265625l0.578125 0q0.40625 2.28125 1.09375 3.421875q0.6875 1.125 2.09375 1.875q1.421875 0.75 3.109375 0.75q1.953125 0 3.078125 -1.03125q1.140625 -1.03125 1.140625 -2.4375q0 -0.78125 -0.4375 -1.578125q-0.421875 -0.796875 -1.328125 -1.484375q-0.609375 -0.46875 -3.328125 -1.984375q-2.71875 -1.53125 -3.875 -2.4375q-1.140625 -0.90625 -1.734375 -2.0q-0.59375 -1.09375 -0.59375 -2.40625q0 -2.28125 1.75 -3.921875q1.75 -1.65625 4.453125 -1.65625q1.6875 0 3.578125 0.828125q0.875 0.390625 1.234375 0.390625q0.40625 0 0.65625 -0.234375q0.265625 -0.25 0.421875 -0.984375l0.578125 0z" fill-rule="nonzero"></path><path fill="#000000" d="m339.1139 197.17313l3.375 -1.640625l0.34375 0l0 11.734375q0 1.171875 0.09375 1.46875q0.09375 0.28125 0.40625 0.4375q0.3125 0.140625 1.25 0.171875l0 0.375l-5.234375 0l0 -0.375q0.984375 -0.03125 1.265625 -0.171875q0.296875 -0.15625 0.40625 -0.40625q0.109375 -0.25 0.109375 -1.5l0 -7.5q0 -1.515625 -0.09375 -1.953125q-0.078125 -0.328125 -0.265625 -0.484375q-0.1875 -0.15625 -0.453125 -0.15625q-0.375 0 -1.0625 0.328125l-0.140625 -0.328125z" fill-rule="nonzero"></path><path fill="#000000" fill-opacity="0.0" d="m368.84253 158.0l61.19684 0l0 60.094482l-61.19684 0z" fill-rule="evenodd"></path><path fill="#000000" d="m406.45657 183.57938l-3.046875 10.59375l-0.34375 1.421875q-0.046875 0.203125 -0.046875 0.34375q0 0.25 0.15625 0.4375q0.125 0.140625 0.3125 0.140625q0.203125 0 0.53125 -0.25q0.609375 -0.453125 1.625 -1.875l0.53125 0.375q-1.078125 1.625 -2.21875 2.484375q-1.140625 0.84375 -2.109375 0.84375q-0.671875 0 -1.015625 -0.34375q-0.328125 -0.328125 -0.328125 -0.96875q0 -0.765625 0.34375 -2.015625l0.328125 -1.171875q-2.046875 2.671875 -3.765625 3.734375q-1.234375 0.765625 -2.421875 0.765625q-1.140625 0 -1.96875 -0.9375q-0.828125 -0.953125 -0.828125 -2.609375q0 -2.484375 1.484375 -5.234375q1.5 -2.765625 3.796875 -4.421875q1.796875 -1.3125 3.390625 -1.3125q0.953125 0 1.578125 0.5q0.640625 0.5 0.96875 1.65625l0.5625 -1.78125l2.484375 -0.375zm-5.5625 0.8125q-1.0 0 -2.125 0.9375q-1.59375 1.328125 -2.84375 3.9375q-1.234375 2.609375 -1.234375 4.71875q0 1.0625 0.53125 1.6875q0.53125 0.609375 1.21875 0.609375q1.703125 0 3.703125 -2.515625q2.671875 -3.34375 2.671875 -6.859375q0 -1.328125 -0.515625 -1.921875q-0.515625 -0.59375 -1.40625 -0.59375z" fill-rule="nonzero"></path><path fill="#000000" fill-opacity="0.0" d="m368.84253 225.46457l61.19684 0l0 60.094482l-61.19684 0z" fill-rule="evenodd"></path><path fill="#000000" d="m393.12845 259.96582l0.6875 0q0.171875 2.140625 1.34375 3.28125q1.171875 1.140625 3.5 1.359375l0 -9.125q-3.515625 -2.171875 -4.6875 -3.84375q-0.828125 -1.1875 -0.828125 -2.890625q0 -1.921875 1.421875 -3.359375q1.4375 -1.4375 4.09375 -1.734375l0 -1.4375l1.0 0l0 1.4375q1.28125 0.078125 2.15625 0.296875q0.453125 0.109375 3.0 1.078125l0 4.671875l-0.609375 0q-0.203125 -2.484375 -1.296875 -3.625q-1.078125 -1.15625 -3.25 -1.375l0 7.9375q3.9375 2.75 5.046875 4.0625q1.125 1.296875 1.125 3.234375q0 2.15625 -1.640625 3.796875q-1.625 1.640625 -4.53125 1.890625l0 2.0l-1.0 0l0 -2.0q-1.46875 -0.0625 -2.734375 -0.34375q-1.265625 -0.265625 -2.796875 -0.890625l0 -4.421875zm5.53125 -7.984375l0 -7.265625q-1.5625 0.1875 -2.328125 1.0q-0.75 0.796875 -0.75 2.015625q0 1.140625 0.6875 2.140625q0.6875 0.984375 2.390625 2.109375zm1.0 12.625q1.171875 -0.203125 1.796875 -0.578125q0.875 -0.546875 1.375 -1.421875q0.515625 -0.890625 0.515625 -1.890625q0 -1.03125 -0.625 -1.953125q-0.609375 -0.921875 -3.0625 -2.609375l0 8.453125z" fill-rule="nonzero"></path><path fill="#000000" fill-opacity="0.0" d="m302.48032 225.46457l61.19684 0l0 60.094482l-61.19684 0z" fill-rule="evenodd"></path><path fill="#000000" d="m333.52014 243.5127l0 7.328125l-0.578125 0q-0.28125 -2.109375 -1.015625 -3.359375q-0.71875 -1.25 -2.0625 -1.984375q-1.34375 -0.734375 -2.78125 -0.734375q-1.625 0 -2.6875 1.0q-1.0625 0.984375 -1.0625 2.25q0 0.96875 0.671875 1.765625q0.96875 1.171875 4.609375 3.125q2.96875 1.59375 4.046875 2.453125q1.09375 0.84375 1.671875 2.0q0.59375 1.15625 0.59375 2.421875q0 2.40625 -1.875 4.15625q-1.859375 1.734375 -4.796875 1.734375q-0.921875 0 -1.734375 -0.140625q-0.484375 -0.078125 -2.015625 -0.5625q-1.515625 -0.5 -1.921875 -0.5q-0.390625 0 -0.625 0.234375q-0.21875 0.234375 -0.328125 0.96875l-0.578125 0l0 -7.265625l0.578125 0q0.40625 2.28125 1.09375 3.421875q0.6875 1.125 2.09375 1.875q1.421875 0.75 3.109375 0.75q1.953125 0 3.078125 -1.03125q1.140625 -1.03125 1.140625 -2.4375q0 -0.78125 -0.4375 -1.578125q-0.421875 -0.796875 -1.328125 -1.484375q-0.609375 -0.46875 -3.328125 -1.984375q-2.71875 -1.53125 -3.875 -2.4375q-1.140625 -0.90625 -1.734375 -2.0q-0.59375 -1.09375 -0.59375 -2.40625q0 -2.28125 1.75 -3.921875q1.75 -1.65625 4.453125 -1.65625q1.6875 0 3.578125 0.828125q0.875 0.390625 1.234375 0.390625q0.40625 0 0.65625 -0.234375q0.265625 -0.25 0.421875 -0.984375l0.578125 0z" fill-rule="nonzero"></path><path fill="#000000" d="m346.27014 274.5127l-0.96875 2.671875l-8.203125 0l0 -0.375q3.625 -3.3125 5.09375 -5.390625q1.484375 -2.09375 1.484375 -3.828125q0 -1.328125 -0.8125 -2.171875q-0.8125 -0.859375 -1.9375 -0.859375q-1.03125 0 -1.84375 0.609375q-0.8125 0.59375 -1.203125 1.75l-0.390625 0q0.265625 -1.890625 1.328125 -2.90625q1.0625 -1.015625 2.640625 -1.015625q1.703125 0 2.828125 1.09375q1.140625 1.078125 1.140625 2.546875q0 1.0625 -0.5 2.125q-0.75 1.65625 -2.453125 3.515625q-2.5625 2.78125 -3.1875 3.359375l3.625 0q1.109375 0 1.546875 -0.078125q0.453125 -0.09375 0.8125 -0.34375q0.359375 -0.25 0.625 -0.703125l0.375 0z" fill-rule="nonzero"></path><path fill="#ffffff" d="m581.6063 294.2047l-143.55908 0l0 -143.55904l143.55908 0z" fill-rule="evenodd"></path><path stroke="#000000" stroke-width="1.0" stroke-linejoin="round" stroke-linecap="butt" stroke-dasharray="8.0,3.0" d="m581.6063 294.2047l-143.55908 0l0 -143.55904l143.55908 0z" fill-rule="evenodd"></path><path fill="#000000" fill-opacity="0.0" d="m573.6063 286.2047l-61.1969 0l0 -60.094482l61.1969 0z" fill-rule="evenodd"></path><path fill="#000000" d="m542.56647 268.1566l0 -7.328125l0.578125 0q0.28125 2.109375 1.015625 3.359375q0.71875 1.25 2.0625 1.984375q1.34375 0.734375 2.78125 0.734375q1.625 0 2.6875 -1.0q1.0625 -0.984375 1.0625 -2.25q0 -0.96875 -0.671875 -1.765625q-0.96875 -1.171875 -4.609375 -3.125q-2.96875 -1.59375 -4.046875 -2.453125q-1.09375 -0.84373474 -1.671875 -1.9999847q-0.59375 -1.15625 -0.59375 -2.421875q0 -2.40625 1.875 -4.15625q1.859375 -1.734375 4.796875 -1.734375q0.921875 0 1.734375 0.140625q0.484375 0.078125 2.015625 0.5625q1.515625 0.5 1.921875 0.5q0.390625 0 0.625 -0.234375q0.21875 -0.234375 0.328125 -0.96875l0.578125 0l0 7.265625l-0.578125 0q-0.40625 -2.28125 -1.09375 -3.421875q-0.6875 -1.125 -2.09375 -1.875q-1.421875 -0.75 -3.109375 -0.75q-1.953125 0 -3.078125 1.03125q-1.140625 1.03125 -1.140625 2.4375q0 0.78125 0.4375 1.578125q0.421875 0.796875 1.328125 1.484375q0.609375 0.46875 3.328125 1.984375q2.71875 1.5312347 3.875 2.4374847q1.140625 0.90625 1.734375 2.0q0.59375 1.09375 0.59375 2.40625q0 2.28125 -1.75 3.921875q-1.75 1.65625 -4.453125 1.65625q-1.6875 0 -3.578125 -0.828125q-0.875 -0.390625 -1.234375 -0.390625q-0.40625 0 -0.65625 0.234375q-0.265625 0.25 -0.421875 0.984375l-0.578125 0z" fill-rule="nonzero"></path><path fill="#000000" d="m536.9727 247.0316l-3.375 1.640625l-0.34375 0l0 -11.734375q0 -1.171875 -0.09375 -1.46875q-0.09375 -0.28125 -0.40625 -0.4375q-0.3125 -0.140625 -1.25 -0.171875l0 -0.375l5.234375 0l0 0.375q-0.984375 0.03125 -1.265625 0.171875q-0.296875 0.15625 -0.40625 0.40625q-0.109375 0.25 -0.109375 1.5l0 7.5q0 1.515625 0.09375 1.953125q0.078125 0.328125 0.265625 0.484375q0.1875 0.15625 0.453125 0.15625q0.375 0 1.0625 -0.328125l0.140625 0.328125z" fill-rule="nonzero"></path><path fill="#000000" fill-opacity="0.0" d="m507.24408 286.2047l-61.19684 0l0 -60.094482l61.19684 0z" fill-rule="evenodd"></path><path fill="#000000" d="m476.20425 268.1566l0 -7.328125l0.578125 0q0.28125 2.109375 1.015625 3.359375q0.71875 1.25 2.0625 1.984375q1.34375 0.734375 2.78125 0.734375q1.625 0 2.6875 -1.0q1.0625 -0.984375 1.0625 -2.25q0 -0.96875 -0.671875 -1.765625q-0.96875 -1.171875 -4.609375 -3.125q-2.96875 -1.59375 -4.046875 -2.453125q-1.09375 -0.84373474 -1.671875 -1.9999847q-0.59375 -1.15625 -0.59375 -2.421875q0 -2.40625 1.875 -4.15625q1.859375 -1.734375 4.796875 -1.734375q0.921875 0 1.734375 0.140625q0.484375 0.078125 2.015625 0.5625q1.515625 0.5 1.921875 0.5q0.390625 0 0.625 -0.234375q0.21875 -0.234375 0.328125 -0.96875l0.578125 0l0 7.265625l-0.578125 0q-0.40625 -2.28125 -1.09375 -3.421875q-0.6875 -1.125 -2.09375 -1.875q-1.421875 -0.75 -3.109375 -0.75q-1.953125 0 -3.078125 1.03125q-1.140625 1.03125 -1.140625 2.4375q0 0.78125 0.4375 1.578125q0.421875 0.796875 1.328125 1.484375q0.609375 0.46875 3.328125 1.984375q2.71875 1.5312347 3.875 2.4374847q1.140625 0.90625 1.734375 2.0q0.59375 1.09375 0.59375 2.40625q0 2.28125 -1.75 3.921875q-1.75 1.65625 -4.453125 1.65625q-1.6875 0 -3.578125 -0.828125q-0.875 -0.390625 -1.234375 -0.390625q-0.40625 0 -0.65625 0.234375q-0.265625 0.25 -0.421875 0.984375l-0.578125 0z" fill-rule="nonzero"></path><path fill="#000000" d="m463.45425 237.1566l0.96875 -2.671875l8.203125 0l0 0.375q-3.625 3.3125 -5.09375 5.390625q-1.484375 2.09375 -1.484375 3.828125q0 1.328125 0.8125 2.171875q0.8125 0.859375 1.9375 0.859375q1.03125 0 1.84375 -0.609375q0.8125 -0.59375 1.203125 -1.75l0.390625 0q-0.265625 1.890625 -1.328125 2.90625q-1.0625 1.015625 -2.640625 1.015625q-1.703125 0 -2.828125 -1.09375q-1.140625 -1.078125 -1.140625 -2.546875q0 -1.0625 0.5 -2.125q0.75 -1.65625 2.453125 -3.515625q2.5625 -2.78125 3.1875 -3.359375l-3.625 0q-1.109375 0 -1.546875 0.078125q-0.453125 0.09375 -0.8125 0.34375q-0.359375 0.25 -0.625 0.703125l-0.375 0z" fill-rule="nonzero"></path><path fill="#000000" fill-opacity="0.0" d="m507.24408 218.74016l-61.19684 0l0 -60.094482l61.19684 0z" fill-rule="evenodd"></path><path fill="#000000" d="m469.63004 193.16078l3.046875 -10.59375l0.34375 -1.421875q0.046875 -0.203125 0.046875 -0.34375q0 -0.25 -0.15625 -0.4375q-0.125 -0.140625 -0.3125 -0.140625q-0.203125 0 -0.53125 0.25q-0.609375 0.453125 -1.625 1.875l-0.53125 -0.375q1.078125 -1.625 2.21875 -2.484375q1.140625 -0.84375 2.109375 -0.84375q0.671875 0 1.015625 0.34375q0.328125 0.328125 0.328125 0.96875q0 0.765625 -0.34375 2.015625l-0.328125 1.171875q2.046875 -2.671875 3.765625 -3.734375q1.234375 -0.765625 2.421875 -0.765625q1.140625 0 1.96875 0.9375q0.828125 0.953125 0.828125 2.609375q0 2.484375 -1.484375 5.234375q-1.5 2.765625 -3.796875 4.421875q-1.796875 1.3125 -3.390625 1.3125q-0.953125 0 -1.578125 -0.5q-0.640625 -0.5 -0.96875 -1.65625l-0.5625 1.78125l-2.484375 0.375zm5.5625 -0.8125q1.0 0 2.125 -0.9375q1.59375 -1.328125 2.84375 -3.9375q1.234375 -2.609375 1.234375 -4.71875q0 -1.0625 -0.53125 -1.6875q-0.53125 -0.609375 -1.21875 -0.609375q-1.703125 0 -3.703125 2.515625q-2.671875 3.34375 -2.671875 6.859375q0 1.328125 0.515625 1.921875q0.515625 0.59375 1.40625 0.59375z" fill-rule="nonzero"></path><path fill="#000000" fill-opacity="0.0" d="m573.6063 218.74016l-61.1969 0l0 -60.094482l61.1969 0z" fill-rule="evenodd"></path><path fill="#000000" d="m549.3204 184.2389l-0.6875 0q-0.171875 -2.140625 -1.34375 -3.28125q-1.171875 -1.140625 -3.5 -1.359375l0 9.125q3.515625 2.171875 4.6875 3.84375q0.828125 1.1875 0.828125 2.890625q0 1.921875 -1.421875 3.359375q-1.4375 1.4375 -4.09375 1.734375l0 1.4375l-1.0 0l0 -1.4375q-1.28125 -0.078125 -2.15625 -0.296875q-0.453125 -0.109375 -3.0 -1.078125l0 -4.671875l0.609375 0q0.203125 2.484375 1.296875 3.625q1.078125 1.15625 3.25 1.375l0 -7.9375q-3.9375 -2.75 -5.046875 -4.0625q-1.125 -1.296875 -1.125 -3.234375q0 -2.15625 1.640625 -3.796875q1.625 -1.640625 4.53125 -1.890625l0 -2.0l1.0 0l0 2.0q1.46875 0.0625 2.734375 0.34375q1.265625 0.265625 2.796875 0.890625l0 4.421875zm-5.53125 7.984375l0 7.265625q1.5625 -0.1875 2.328125 -1.0q0.75 -0.796875 0.75 -2.015625q0 -1.140625 -0.6875 -2.140625q-0.6875 -0.984375 -2.390625 -2.109375zm-1.0 -12.625q-1.171875 0.203125 -1.796875 0.578125q-0.875 0.546875 -1.375 1.421875q-0.515625 0.890625 -0.515625 1.890625q0 1.03125 0.625 1.953125q0.609375 0.921875 3.0625 2.609375l0 -8.453125z" fill-rule="nonzero"></path><path fill="#ffffff" d="m594.1155 121.80577l15.023621 15.577301l0 -7.5118256l0 0c18.79718 1.4065247 34.35614 5.365814 42.103455 10.71405l0 0c7.341675 -5.068268 6.895996 -10.853821 -1.2182007 -15.814018c-8.114258 -4.9601974 -23.072083 -8.590759 -40.885254 -9.923645l0 -7.5118103z" fill-rule="evenodd"></path><path fill="#cbcbcb" d="m656.44617 133.07349c0 10.371658 -27.906372 18.779526 -62.33069 18.779526l0 15.023636l0 0c34.424316 0 62.33069 -8.407883 62.33069 -18.779541z" fill-rule="evenodd"></path><path fill="#000000" fill-opacity="0.0" d="m656.44617 133.07349c0 10.371658 -27.906372 18.779526 -62.33069 18.779526l0 15.023636l0 0c34.424316 0 62.33069 -8.407883 62.33069 -18.779541l0 -15.023621c0 -8.628174 -19.513794 -16.146202 -47.307068 -18.225853l0 -7.5118103l-15.023621 14.469948l15.023621 15.577301l0 -7.5118256l0 0c18.79718 1.4065247 34.35614 5.365814 42.103455 10.71405" fill-rule="evenodd"></path><path stroke="#000000" stroke-width="1.0" stroke-linejoin="round" stroke-linecap="butt" d="m656.44617 133.07349c0 10.371658 -27.906372 18.779526 -62.33069 18.779526l0 15.023636l0 0c34.424316 0 62.33069 -8.407883 62.33069 -18.779541l0 -15.023621c0 -8.628174 -19.513794 -16.146202 -47.307068 -18.225853l0 -7.5118103l-15.023621 14.469948l15.023621 15.577301l0 -7.5118256l0 0c18.79718 1.4065247 34.35614 5.365814 42.103455 10.71405" fill-rule="evenodd"></path><path fill="#000000" fill-opacity="0.0" d="m274.7349 269.25986l19.748047 0l0 24.944855l-19.748047 0z" fill-rule="evenodd"></path><path fill="#000000" d="m284.6724 281.1586l1.296875 -0.625l0.125 0l0 4.46875q0 0.453125 0.03125 0.5625q0.046875 0.109375 0.15625 0.171875q0.125 0.046875 0.484375 0.0625l0 0.140625l-2.0 0l0 -0.140625q0.375 -0.015625 0.484375 -0.0625q0.109375 -0.0625 0.15625 -0.15625q0.046875 -0.09375 0.046875 -0.578125l0 -2.859375q0 -0.578125 -0.046875 -0.734375q-0.03125 -0.125 -0.109375 -0.1875q-0.0625 -0.0625 -0.15625 -0.0625q-0.15625 0 -0.40625 0.125l-0.0625 -0.125z" fill-rule="nonzero"></path><path fill="#000000" fill-opacity="0.0" d="m418.2966 269.25986l19.748016 0l0 24.944855l-19.748016 0z" fill-rule="evenodd"></path><path fill="#000000" d="m427.70285 281.64297q0.234375 -0.53125 0.578125 -0.8125q0.34375 -0.296875 0.859375 -0.296875q0.640625 0 0.96875 0.40625q0.265625 0.3125 0.265625 0.671875q0 0.578125 -0.734375 1.1875q0.5 0.1875 0.75 0.546875q0.25 0.359375 0.25 0.84375q0 0.6875 -0.4375 1.1875q-0.578125 0.65625 -1.65625 0.65625q-0.53125 0 -0.734375 -0.125q-0.1875 -0.140625 -0.1875 -0.296875q0 -0.109375 0.09375 -0.1875q0.09375 -0.09375 0.21875 -0.09375q0.09375 0 0.203125 0.03125q0.0625 0.015625 0.296875 0.140625q0.234375 0.125 0.328125 0.140625q0.140625 0.046875 0.296875 0.046875q0.40625 0 0.703125 -0.296875q0.296875 -0.3125 0.296875 -0.734375q0 -0.3125 -0.140625 -0.609375q-0.109375 -0.21875 -0.21875 -0.328125q-0.171875 -0.15625 -0.46875 -0.28125q-0.296875 -0.125 -0.59375 -0.125l-0.125 0l0 -0.125q0.3125 -0.03125 0.609375 -0.21875q0.3125 -0.1875 0.453125 -0.4375q0.140625 -0.265625 0.140625 -0.578125q0 -0.390625 -0.25 -0.640625q-0.25 -0.25 -0.625 -0.25q-0.609375 0 -1.015625 0.640625l-0.125 -0.0625z" fill-rule="nonzero"></path><path fill="#000000" fill-opacity="0.0" d="m457.7874 174.94489l-19.748047 0l0 -24.944885l19.748047 0z" fill-rule="evenodd"></path><path fill="#000000" d="m445.19366 163.67113l0 -0.140625q0.515625 -0.046875 0.84375 -0.203125q0.328125 -0.15625 0.65625 -0.484375q0.3125 -0.3125 0.53125 -0.703125q0.203125 -0.375 0.34375 -0.921875q-0.5625 0.390625 -1.140625 0.390625q-0.53125 0 -0.921875 -0.4375q-0.40625 -0.4375 -0.40625 -1.125q0 -0.65625 0.390625 -1.203125q0.484375 -0.671875 1.28125 -0.671875q0.546875 0 0.921875 0.359375q0.75 0.703125 0.75 1.8125q0 0.71875 -0.28125 1.359375q-0.296875 0.640625 -0.8125 1.125q-0.53125 0.5 -1.015625 0.671875q-0.484375 0.171875 -0.90625 0.171875l-0.234375 0zm2.4375 -2.734375q0.0625 -0.53125 0.0625 -0.84375q0 -0.375 -0.125 -0.828125q-0.140625 -0.4375 -0.421875 -0.6875q-0.203125 -0.1875 -0.484375 -0.1875q-0.34375 0 -0.609375 0.3125q-0.265625 0.328125 -0.265625 0.921875q0 0.671875 0.265625 1.15625q0.265625 0.484375 0.75 0.484375q0.15625 0 0.328125 -0.0625q0.171875 -0.0625 0.5 -0.265625z" fill-rule="nonzero"></path><path fill="#000000" fill-opacity="0.0" d="m274.7349 125.685036l19.748047 0l0 24.944893l-19.748047 0z" fill-rule="evenodd"></path><path fill="#000000" d="m287.45364 140.41191l0 0.546875l-0.703125 0l0 1.40625l-0.640625 0l0 -1.40625l-2.25 0l0 -0.5l2.453125 -3.5l0.4375 0l0 3.453125l0.703125 0zm-1.34375 0l0 -2.625l-1.859375 2.625l1.859375 0z" fill-rule="nonzero"></path><path fill="#000000" fill-opacity="0.0" d="m134.00787 269.25986l19.748032 0l0 24.944855l-19.748032 0z" fill-rule="evenodd"></path><path fill="#000000" d="m146.67975 284.92422l-0.375 1.015625l-3.125 0l0 -0.140625q1.375 -1.265625 1.9375 -2.0625q0.5625 -0.796875 0.5625 -1.453125q0 -0.5 -0.3125 -0.828125q-0.296875 -0.328125 -0.734375 -0.328125q-0.390625 0 -0.703125 0.234375q-0.296875 0.21875 -0.453125 0.671875l-0.140625 0q0.09375 -0.734375 0.5 -1.109375q0.40625 -0.390625 1.015625 -0.390625q0.640625 0 1.0625 0.421875q0.4375 0.40625 0.4375 0.96875q0 0.40625 -0.1875 0.796875q-0.28125 0.640625 -0.9375 1.34375q-0.96875 1.0625 -1.21875 1.28125l1.390625 0q0.421875 0 0.59375 -0.03125q0.171875 -0.03125 0.296875 -0.125q0.140625 -0.09375 0.25 -0.265625l0.140625 0z" fill-rule="nonzero"></path><path fill="#000000" fill-opacity="0.0" d="m274.7349 413.46457l19.748047 0l0 24.944885l-19.748047 0z" fill-rule="evenodd"></path><path fill="#000000" d="m287.20364 424.8477l-0.296875 0.65625l-1.59375 0l-0.34375 0.71875q1.03125 0.15625 1.640625 0.765625q0.515625 0.53125 0.515625 1.25q0 0.421875 -0.171875 0.78125q-0.171875 0.34375 -0.4375 0.59375q-0.25 0.25 -0.5625 0.40625q-0.453125 0.21875 -0.921875 0.21875q-0.484375 0 -0.703125 -0.15625q-0.203125 -0.171875 -0.203125 -0.359375q0 -0.109375 0.078125 -0.1875q0.09375 -0.09375 0.234375 -0.09375q0.09375 0 0.171875 0.03125q0.078125 0.03125 0.265625 0.15625q0.296875 0.203125 0.59375 0.203125q0.453125 0 0.796875 -0.34375q0.34375 -0.34375 0.34375 -0.84375q0 -0.484375 -0.3125 -0.890625q-0.296875 -0.421875 -0.84375 -0.640625q-0.421875 -0.1875 -1.15625 -0.203125l1.015625 -2.0625l1.890625 0z" fill-rule="nonzero"></path></g></svg>

