<?xml version="1.0" standalone="yes"?>

<svg version="1.1" viewBox="0.0 0.0 960.0 720.0" fill="none" stroke="none" stroke-linecap="square" stroke-miterlimit="10" xmlns="http://www.w3.org/2000/svg" xmlns:xlink="http://www.w3.org/1999/xlink"><clipPath id="p.0"><path d="m0 0l960.0 0l0 720.0l-960.0 0l0 -720.0z" clip-rule="nonzero"></path></clipPath><g clip-path="url(#p.0)"><path fill="#000000" fill-opacity="0.0" d="m0 0l960.0 0l0 720.0l-960.0 0z" fill-rule="evenodd"></path><path fill="#ffffff" d="m73.15223 280.2467l143.55905 0l0 143.55908l-143.55905 0z" fill-rule="evenodd"></path><path stroke="#000000" stroke-width="1.0" stroke-linejoin="round" stroke-linecap="butt" stroke-dasharray="8.0,3.0" d="m73.15223 280.2467l143.55905 0l0 143.55908l-143.55905 0z" fill-rule="evenodd"></path><path fill="#000000" fill-opacity="0.0" d="m81.15223 288.2467l61.196846 0l0 60.094513l-61.196846 0z" fill-rule="evenodd"></path><path fill="#000000" d="m112.19206 306.29483l0 7.328125l-0.578125 0q-0.28125 -2.109375 -1.015625 -3.359375q-0.71875 -1.25 -2.0625 -1.984375q-1.34375 -0.734375 -2.78125 -0.734375q-1.625 0 -2.6875 1.0q-1.0625 0.984375 -1.0625 2.25q0 0.96875 0.671875 1.765625q0.96875 1.171875 4.609375 3.125q2.96875 1.59375 4.046875 2.453125q1.09375 0.84375 1.671875 2.0q0.59375 1.15625 0.59375 2.421875q0 2.40625 -1.875 4.15625q-1.859375 1.734375 -4.796875 1.734375q-0.921875 0 -1.734375 -0.140625q-0.484375 -0.078125 -2.015625 -0.5625q-1.515625 -0.5 -1.921875 -0.5q-0.390625 0 -0.625 0.234375q-0.21875 0.234375 -0.328125 0.96875l-0.578125 0l0 -7.265625l0.578125 0q0.40625 2.28125 1.09375 3.421875q0.6875 1.125 2.09375 1.875q1.421875 0.75 3.109375 0.75q1.953125 0 3.078125 -1.03125q1.140625 -1.03125 1.140625 -2.4375q0 -0.78125 -0.4375 -1.578125q-0.421875 -0.796875 -1.328125 -1.484375q-0.609375 -0.46875 -3.328125 -1.984375q-2.71875 -1.53125 -3.875 -2.4375q-1.140625 -0.90625 -1.734375 -2.0q-0.59375 -1.09375 -0.59375 -2.40625q0 -2.28125 1.75 -3.921875q1.75 -1.65625 4.453125 -1.65625q1.6875 0 3.578125 0.828125q0.875 0.390625 1.234375 0.390625q0.40625 0 0.65625 -0.234375q0.265625 -0.25 0.421875 -0.984375l0.578125 0z" fill-rule="nonzero"></path><path fill="#000000" d="m117.78581 327.41983l3.375 -1.640625l0.34375 0l0 11.734375q0 1.171875 0.09375 1.46875q0.09375 0.28125 0.40625 0.4375q0.3125 0.140625 1.25 0.171875l0 0.375l-5.234375 0l0 -0.375q0.984375 -0.03125 1.265625 -0.171875q0.296875 -0.15625 0.40625 -0.40625q0.109375 -0.25 0.109375 -1.5l0 -7.5q0 -1.515625 -0.09375 -1.953125q-0.078125 -0.328125 -0.265625 -0.484375q-0.1875 -0.15625 -0.453125 -0.15625q-0.375 0 -1.0625 0.328125l-0.140625 -0.328125z" fill-rule="nonzero"></path><path fill="#000000" fill-opacity="0.0" d="m147.51443 288.2467l61.196854 0l0 60.094513l-61.196854 0z" fill-rule="evenodd"></path><path fill="#000000" d="m178.55426 306.29483l0 7.328125l-0.578125 0q-0.28125 -2.109375 -1.015625 -3.359375q-0.71875 -1.25 -2.0625 -1.984375q-1.34375 -0.734375 -2.78125 -0.734375q-1.625 0 -2.6875 1.0q-1.0625 0.984375 -1.0625 2.25q0 0.96875 0.671875 1.765625q0.96875 1.171875 4.609375 3.125q2.96875 1.59375 4.046875 2.453125q1.09375 0.84375 1.671875 2.0q0.59376526 1.15625 0.59376526 2.421875q0 2.40625 -1.8750153 4.15625q-1.859375 1.734375 -4.796875 1.734375q-0.921875 0 -1.734375 -0.140625q-0.484375 -0.078125 -2.015625 -0.5625q-1.515625 -0.5 -1.921875 -0.5q-0.390625 0 -0.625 0.234375q-0.21875 0.234375 -0.328125 0.96875l-0.578125 0l0 -7.265625l0.578125 0q0.40625 2.28125 1.09375 3.421875q0.6875 1.125 2.09375 1.875q1.421875 0.75 3.109375 0.75q1.953125 0 3.078125 -1.03125q1.140625 -1.03125 1.140625 -2.4375q0 -0.78125 -0.4375 -1.578125q-0.421875 -0.796875 -1.328125 -1.484375q-0.609375 -0.46875 -3.328125 -1.984375q-2.71875 -1.53125 -3.875 -2.4375q-1.140625 -0.90625 -1.734375 -2.0q-0.59375 -1.09375 -0.59375 -2.40625q0 -2.28125 1.75 -3.921875q1.75 -1.65625 4.453125 -1.65625q1.6875 0 3.578125 0.828125q0.875 0.390625 1.234375 0.390625q0.40625 0 0.65625 -0.234375q0.265625 -0.25 0.421875 -0.984375l0.578125 0z" fill-rule="nonzero"></path><path fill="#000000" d="m191.30428 337.29483l-0.96875 2.671875l-8.203125 0l0 -0.375q3.625 -3.3125 5.09375 -5.390625q1.484375 -2.09375 1.484375 -3.828125q0 -1.328125 -0.8125 -2.171875q-0.8125 -0.859375 -1.9375 -0.859375q-1.03125 0 -1.84375 0.609375q-0.8125 0.59375 -1.203125 1.75l-0.390625 0q0.265625 -1.890625 1.328125 -2.90625q1.0625 -1.015625 2.640625 -1.015625q1.703125 0 2.828125 1.09375q1.140625 1.078125 1.140625 2.546875q0 1.0625 -0.5 2.125q-0.75 1.65625 -2.453125 3.515625q-2.5625 2.78125 -3.1875 3.359375l3.625 0q1.109375 0 1.546875 -0.078125q0.453125 -0.09375 0.8125 -0.34375q0.359375 -0.25 0.625 -0.703125l0.375 0z" fill-rule="nonzero"></path><path fill="#000000" fill-opacity="0.0" d="m147.51443 355.71127l61.196854 0l0 60.094513l-61.196854 0z" fill-rule="evenodd"></path><path fill="#000000" d="m171.80035 390.21252l0.6875 0q0.171875 2.140625 1.34375 3.28125q1.171875 1.140625 3.5 1.359375l0 -9.125q-3.515625 -2.171875 -4.6875 -3.84375q-0.828125 -1.1875 -0.828125 -2.890625q0 -1.921875 1.421875 -3.359375q1.4375 -1.4375 4.09375 -1.734375l0 -1.4375l1.0 0l0 1.4375q1.2812653 0.078125 2.1562653 0.296875q0.453125 0.109375 3.0 1.078125l0 4.671875l-0.609375 0q-0.203125 -2.484375 -1.296875 -3.625q-1.078125 -1.15625 -3.2500153 -1.375l0 7.9375q3.9375153 2.75 5.0468903 4.0625q1.125 1.296875 1.125 3.234375q0 2.15625 -1.640625 3.796875q-1.625 1.640625 -4.5312653 1.890625l0 2.0l-1.0 0l0 -2.0q-1.46875 -0.0625 -2.734375 -0.34375q-1.265625 -0.265625 -2.796875 -0.890625l0 -4.421875zm5.53125 -7.984375l0 -7.265625q-1.5625 0.1875 -2.328125 1.0q-0.75 0.796875 -0.75 2.015625q0 1.140625 0.6875 2.140625q0.6875 0.984375 2.390625 2.109375zm1.0 12.625q1.171875 -0.203125 1.7968903 -0.578125q0.875 -0.546875 1.375 -1.421875q0.515625 -0.890625 0.515625 -1.890625q0 -1.03125 -0.625 -1.953125q-0.609375 -0.921875 -3.0625153 -2.609375l0 8.453125z" fill-rule="nonzero"></path><path fill="#000000" fill-opacity="0.0" d="m81.15223 355.71127l61.196846 0l0 60.094513l-61.196846 0z" fill-rule="evenodd"></path><path fill="#000000" d="m118.76628 381.29065l-3.046875 10.59375l-0.34375 1.421875q-0.046875 0.203125 -0.046875 0.34375q0 0.25 0.15625 0.4375q0.125 0.140625 0.3125 0.140625q0.203125 0 0.53125 -0.25q0.609375 -0.453125 1.625 -1.875l0.53125 0.375q-1.078125 1.625 -2.21875 2.484375q-1.140625 0.84375 -2.109375 0.84375q-0.671875 0 -1.015625 -0.34375q-0.328125 -0.328125 -0.328125 -0.96875q0 -0.765625 0.34375 -2.015625l0.328125 -1.171875q-2.046875 2.671875 -3.765625 3.734375q-1.234375 0.765625 -2.421875 0.765625q-1.140625 0 -1.96875 -0.9375q-0.828125 -0.953125 -0.828125 -2.609375q0 -2.484375 1.484375 -5.234375q1.5 -2.765625 3.796875 -4.421875q1.796875 -1.3125 3.390625 -1.3125q0.953125 0 1.578125 0.5q0.640625 0.5 0.96875 1.65625l0.5625 -1.78125l2.484375 -0.375zm-5.5625 0.8125q-1.0 0 -2.125 0.9375q-1.59375 1.328125 -2.84375 3.9375q-1.234375 2.609375 -1.234375 4.71875q0 1.0625 0.53125 1.6875q0.53125 0.609375 1.21875 0.609375q1.703125 0 3.703125 -2.515625q2.671875 -3.34375 2.671875 -6.859375q0 -1.328125 -0.515625 -1.921875q-0.515625 -0.59375 -1.40625 -0.59375z" fill-rule="nonzero"></path><path fill="#ffffff" d="m216.71129 280.2467l143.55907 0l0 143.55908l-143.55907 0z" fill-rule="evenodd"></path><path stroke="#000000" stroke-width="1.0" stroke-linejoin="round" stroke-linecap="butt" stroke-dasharray="8.0,3.0" d="m216.71129 280.2467l143.55907 0l0 143.55908l-143.55907 0z" fill-rule="evenodd"></path><path fill="#000000" fill-opacity="0.0" d="m224.71129 288.2467l61.196854 0l0 60.094513l-61.196854 0z" fill-rule="evenodd"></path><path fill="#000000" d="m255.75111 306.29483l0 7.328125l-0.578125 0q-0.28125 -2.109375 -1.015625 -3.359375q-0.71875 -1.25 -2.0625 -1.984375q-1.34375 -0.734375 -2.78125 -0.734375q-1.625 0 -2.6875 1.0q-1.0625 0.984375 -1.0625 2.25q0 0.96875 0.671875 1.765625q0.96875 1.171875 4.609375 3.125q2.96875 1.59375 4.046875 2.453125q1.09375 0.84375 1.6718903 2.0q0.59375 1.15625 0.59375 2.421875q0 2.40625 -1.8750153 4.15625q-1.859375 1.734375 -4.796875 1.734375q-0.921875 0 -1.734375 -0.140625q-0.484375 -0.078125 -2.015625 -0.5625q-1.515625 -0.5 -1.921875 -0.5q-0.390625 0 -0.625 0.234375q-0.21875 0.234375 -0.328125 0.96875l-0.578125 0l0 -7.265625l0.578125 0q0.40625 2.28125 1.09375 3.421875q0.6875 1.125 2.09375 1.875q1.421875 0.75 3.109375 0.75q1.953125 0 3.078125 -1.03125q1.140625 -1.03125 1.140625 -2.4375q0 -0.78125 -0.4375 -1.578125q-0.421875 -0.796875 -1.328125 -1.484375q-0.609375 -0.46875 -3.328125 -1.984375q-2.71875 -1.53125 -3.875 -2.4375q-1.140625 -0.90625 -1.734375 -2.0q-0.59375 -1.09375 -0.59375 -2.40625q0 -2.28125 1.75 -3.921875q1.75 -1.65625 4.453125 -1.65625q1.6875 0 3.578125 0.828125q0.875 0.390625 1.234375 0.390625q0.40625 0 0.65625 -0.234375q0.265625 -0.25 0.421875 -0.984375l0.578125 0z" fill-rule="nonzero"></path><path fill="#000000" d="m261.34488 327.41983l3.375 -1.640625l0.34375 0l0 11.734375q0 1.171875 0.09375 1.46875q0.09375 0.28125 0.40625 0.4375q0.3125 0.140625 1.25 0.171875l0 0.375l-5.234375 0l0 -0.375q0.984375 -0.03125 1.265625 -0.171875q0.296875 -0.15625 0.40625 -0.40625q0.109375 -0.25 0.109375 -1.5l0 -7.5q0 -1.515625 -0.09375 -1.953125q-0.078125 -0.328125 -0.265625 -0.484375q-0.1875 -0.15625 -0.453125 -0.15625q-0.375 0 -1.0625 0.328125l-0.140625 -0.328125z" fill-rule="nonzero"></path><path fill="#000000" fill-opacity="0.0" d="m291.0735 288.2467l61.19687 0l0 60.094513l-61.19687 0z" fill-rule="evenodd"></path><path fill="#000000" d="m322.1133 306.29483l0 7.328125l-0.578125 0q-0.28125 -2.109375 -1.015625 -3.359375q-0.71875 -1.25 -2.0625 -1.984375q-1.34375 -0.734375 -2.78125 -0.734375q-1.625 0 -2.6875 1.0q-1.0625 0.984375 -1.0625 2.25q0 0.96875 0.671875 1.765625q0.96875 1.171875 4.609375 3.125q2.96875 1.59375 4.046875 2.453125q1.09375 0.84375 1.671875 2.0q0.59375 1.15625 0.59375 2.421875q0 2.40625 -1.875 4.15625q-1.859375 1.734375 -4.796875 1.734375q-0.921875 0 -1.734375 -0.140625q-0.484375 -0.078125 -2.015625 -0.5625q-1.515625 -0.5 -1.921875 -0.5q-0.390625 0 -0.625 0.234375q-0.21875 0.234375 -0.328125 0.96875l-0.578125 0l0 -7.265625l0.578125 0q0.40625 2.28125 1.09375 3.421875q0.6875 1.125 2.09375 1.875q1.421875 0.75 3.109375 0.75q1.953125 0 3.078125 -1.03125q1.140625 -1.03125 1.140625 -2.4375q0 -0.78125 -0.4375 -1.578125q-0.421875 -0.796875 -1.328125 -1.484375q-0.609375 -0.46875 -3.328125 -1.984375q-2.71875 -1.53125 -3.875 -2.4375q-1.140625 -0.90625 -1.734375 -2.0q-0.59375 -1.09375 -0.59375 -2.40625q0 -2.28125 1.75 -3.921875q1.75 -1.65625 4.453125 -1.65625q1.6875 0 3.578125 0.828125q0.875 0.390625 1.234375 0.390625q0.40625 0 0.65625 -0.234375q0.265625 -0.25 0.421875 -0.984375l0.578125 0z" fill-rule="nonzero"></path><path fill="#000000" d="m334.8633 337.29483l-0.96875 2.671875l-8.203125 0l0 -0.375q3.625 -3.3125 5.09375 -5.390625q1.484375 -2.09375 1.484375 -3.828125q0 -1.328125 -0.8125 -2.171875q-0.8125 -0.859375 -1.9375 -0.859375q-1.03125 0 -1.84375 0.609375q-0.8125 0.59375 -1.203125 1.75l-0.390625 0q0.265625 -1.890625 1.328125 -2.90625q1.0625 -1.015625 2.640625 -1.015625q1.703125 0 2.828125 1.09375q1.140625 1.078125 1.140625 2.546875q0 1.0625 -0.5 2.125q-0.75 1.65625 -2.453125 3.515625q-2.5625 2.78125 -3.1875 3.359375l3.625 0q1.109375 0 1.546875 -0.078125q0.453125 -0.09375 0.8125 -0.34375q0.359375 -0.25 0.625 -0.703125l0.375 0z" fill-rule="nonzero"></path><path fill="#000000" fill-opacity="0.0" d="m291.0735 355.71127l61.19687 0l0 60.094513l-61.19687 0z" fill-rule="evenodd"></path><path fill="#000000" d="m328.68753 381.29065l-3.046875 10.59375l-0.34375 1.421875q-0.046875 0.203125 -0.046875 0.34375q0 0.25 0.15625 0.4375q0.125 0.140625 0.3125 0.140625q0.203125 0 0.53125 -0.25q0.609375 -0.453125 1.625 -1.875l0.53125 0.375q-1.078125 1.625 -2.21875 2.484375q-1.140625 0.84375 -2.109375 0.84375q-0.671875 0 -1.015625 -0.34375q-0.328125 -0.328125 -0.328125 -0.96875q0 -0.765625 0.34375 -2.015625l0.328125 -1.171875q-2.046875 2.671875 -3.765625 3.734375q-1.234375 0.765625 -2.421875 0.765625q-1.140625 0 -1.96875 -0.9375q-0.828125 -0.953125 -0.828125 -2.609375q0 -2.484375 1.484375 -5.234375q1.5 -2.765625 3.796875 -4.421875q1.796875 -1.3125 3.390625 -1.3125q0.953125 0 1.578125 0.5q0.640625 0.5 0.96875 1.65625l0.5625 -1.78125l2.484375 -0.375zm-5.5625 0.8125q-1.0 0 -2.125 0.9375q-1.59375 1.328125 -2.84375 3.9375q-1.234375 2.609375 -1.234375 4.71875q0 1.0625 0.53125 1.6875q0.53125 0.609375 1.21875 0.609375q1.703125 0 3.703125 -2.515625q2.671875 -3.34375 2.671875 -6.859375q0 -1.328125 -0.515625 -1.921875q-0.515625 -0.59375 -1.40625 -0.59375z" fill-rule="nonzero"></path><path fill="#000000" fill-opacity="0.0" d="m224.71129 355.71127l61.196854 0l0 60.094513l-61.196854 0z" fill-rule="evenodd"></path><path fill="#000000" d="m248.99721 390.21252l0.6875 0q0.171875 2.140625 1.34375 3.28125q1.171875 1.140625 3.5 1.359375l0 -9.125q-3.515625 -2.171875 -4.6875 -3.84375q-0.828125 -1.1875 -0.828125 -2.890625q0 -1.921875 1.421875 -3.359375q1.4375 -1.4375 4.09375 -1.734375l0 -1.4375l1.0 0l0 1.4375q1.2812653 0.078125 2.1562653 0.296875q0.453125 0.109375 3.0 1.078125l0 4.671875l-0.609375 0q-0.203125 -2.484375 -1.296875 -3.625q-1.078125 -1.15625 -3.2500153 -1.375l0 7.9375q3.9375153 2.75 5.0468903 4.0625q1.125 1.296875 1.125 3.234375q0 2.15625 -1.640625 3.796875q-1.625 1.640625 -4.5312653 1.890625l0 2.0l-1.0 0l0 -2.0q-1.46875 -0.0625 -2.734375 -0.34375q-1.265625 -0.265625 -2.796875 -0.890625l0 -4.421875zm5.53125 -7.984375l0 -7.265625q-1.5625 0.1875 -2.328125 1.0q-0.75 0.796875 -0.75 2.015625q0 1.140625 0.6875 2.140625q0.6875 0.984375 2.390625 2.109375zm1.0 12.625q1.1718903 -0.203125 1.7968903 -0.578125q0.875 -0.546875 1.375 -1.421875q0.515625 -0.890625 0.515625 -1.890625q0 -1.03125 -0.625 -1.953125q-0.609375 -0.921875 -3.0625153 -2.609375l0 8.453125z" fill-rule="nonzero"></path><path fill="#ffffff" d="m216.71129 136.68767l143.55907 0l0 143.55904l-143.55907 0z" fill-rule="evenodd"></path><path stroke="#000000" stroke-width="1.0" stroke-linejoin="round" stroke-linecap="butt" stroke-dasharray="8.0,3.0" d="m216.71129 136.68767l143.55907 0l0 143.55904l-143.55907 0z" fill-rule="evenodd"></path><path fill="#000000" fill-opacity="0.0" d="m224.71129 144.68767l61.196854 0l0 60.094482l-61.196854 0z" fill-rule="evenodd"></path><path fill="#000000" d="m255.75111 162.7358l0 7.328125l-0.578125 0q-0.28125 -2.109375 -1.015625 -3.359375q-0.71875 -1.25 -2.0625 -1.984375q-1.34375 -0.734375 -2.78125 -0.734375q-1.625 0 -2.6875 1.0q-1.0625 0.984375 -1.0625 2.25q0 0.96875 0.671875 1.765625q0.96875 1.171875 4.609375 3.125q2.96875 1.59375 4.046875 2.453125q1.09375 0.84375 1.6718903 2.0q0.59375 1.15625 0.59375 2.421875q0 2.40625 -1.8750153 4.15625q-1.859375 1.734375 -4.796875 1.734375q-0.921875 0 -1.734375 -0.140625q-0.484375 -0.078125 -2.015625 -0.5625q-1.515625 -0.5 -1.921875 -0.5q-0.390625 0 -0.625 0.234375q-0.21875 0.234375 -0.328125 0.96875l-0.578125 0l0 -7.265625l0.578125 0q0.40625 2.28125 1.09375 3.421875q0.6875 1.125 2.09375 1.875q1.421875 0.75 3.109375 0.75q1.953125 0 3.078125 -1.03125q1.140625 -1.03125 1.140625 -2.4375q0 -0.78125 -0.4375 -1.578125q-0.421875 -0.796875 -1.328125 -1.484375q-0.609375 -0.46875 -3.328125 -1.984375q-2.71875 -1.53125 -3.875 -2.4375q-1.140625 -0.90625 -1.734375 -2.0q-0.59375 -1.09375 -0.59375 -2.40625q0 -2.28125 1.75 -3.921875q1.75 -1.65625 4.453125 -1.65625q1.6875 0 3.578125 0.828125q0.875 0.390625 1.234375 0.390625q0.40625 0 0.65625 -0.234375q0.265625 -0.25 0.421875 -0.984375l0.578125 0z" fill-rule="nonzero"></path><path fill="#000000" d="m261.34488 183.8608l3.375 -1.640625l0.34375 0l0 11.734375q0 1.171875 0.09375 1.46875q0.09375 0.28125 0.40625 0.4375q0.3125 0.140625 1.25 0.171875l0 0.375l-5.234375 0l0 -0.375q0.984375 -0.03125 1.265625 -0.171875q0.296875 -0.15625 0.40625 -0.40625q0.109375 -0.25 0.109375 -1.5l0 -7.5q0 -1.515625 -0.09375 -1.953125q-0.078125 -0.328125 -0.265625 -0.484375q-0.1875 -0.15625 -0.453125 -0.15625q-0.375 0 -1.0625 0.328125l-0.140625 -0.328125z" fill-rule="nonzero"></path><path fill="#000000" fill-opacity="0.0" d="m291.0735 144.68767l61.19687 0l0 60.094482l-61.19687 0z" fill-rule="evenodd"></path><path fill="#000000" d="m315.3594 179.18892l0.6875 0q0.171875 2.140625 1.34375 3.28125q1.171875 1.140625 3.5 1.359375l0 -9.125q-3.515625 -2.171875 -4.6875 -3.84375q-0.828125 -1.1875 -0.828125 -2.890625q0 -1.921875 1.421875 -3.359375q1.4375 -1.4375 4.09375 -1.734375l0 -1.4375l1.0 0l0 1.4375q1.28125 0.078125 2.15625 0.296875q0.453125 0.109375 3.0 1.078125l0 4.671875l-0.609375 0q-0.203125 -2.484375 -1.296875 -3.625q-1.078125 -1.15625 -3.25 -1.375l0 7.9375q3.9375 2.75 5.046875 4.0625q1.125 1.296875 1.125 3.234375q0 2.15625 -1.640625 3.796875q-1.625 1.640625 -4.53125 1.890625l0 2.0l-1.0 0l0 -2.0q-1.46875 -0.0625 -2.734375 -0.34375q-1.265625 -0.265625 -2.796875 -0.890625l0 -4.421875zm5.53125 -7.984375l0 -7.265625q-1.5625 0.1875 -2.328125 1.0q-0.75 0.796875 -0.75 2.015625q0 1.140625 0.6875 2.140625q0.6875 0.984375 2.390625 2.109375zm1.0 12.625q1.171875 -0.203125 1.796875 -0.578125q0.875 -0.546875 1.375 -1.421875q0.515625 -0.890625 0.515625 -1.890625q0 -1.03125 -0.625 -1.953125q-0.609375 -0.921875 -3.0625 -2.609375l0 8.453125z" fill-rule="nonzero"></path><path fill="#000000" fill-opacity="0.0" d="m291.0735 212.15224l61.19687 0l0 60.094467l-61.19687 0z" fill-rule="evenodd"></path><path fill="#000000" d="m322.1133 230.20036l0 7.328125l-0.578125 0q-0.28125 -2.109375 -1.015625 -3.359375q-0.71875 -1.25 -2.0625 -1.984375q-1.34375 -0.734375 -2.78125 -0.734375q-1.625 0 -2.6875 1.0q-1.0625 0.984375 -1.0625 2.25q0 0.96875 0.671875 1.765625q0.96875 1.171875 4.609375 3.125q2.96875 1.59375 4.046875 2.453125q1.09375 0.84375 1.671875 2.0q0.59375 1.15625 0.59375 2.421875q0 2.40625 -1.875 4.15625q-1.859375 1.734375 -4.796875 1.734375q-0.921875 0 -1.734375 -0.140625q-0.484375 -0.078125 -2.015625 -0.5625q-1.515625 -0.5 -1.921875 -0.5q-0.390625 0 -0.625 0.234375q-0.21875 0.234375 -0.328125 0.96875l-0.578125 0l0 -7.265625l0.578125 0q0.40625 2.28125 1.09375 3.421875q0.6875 1.125 2.09375 1.875q1.421875 0.75 3.109375 0.75q1.953125 0 3.078125 -1.03125q1.140625 -1.03125 1.140625 -2.4375q0 -0.78125 -0.4375 -1.578125q-0.421875 -0.796875 -1.328125 -1.484375q-0.609375 -0.46875 -3.328125 -1.984375q-2.71875 -1.53125 -3.875 -2.4375q-1.140625 -0.90625 -1.734375 -2.0q-0.59375 -1.09375 -0.59375 -2.40625q0 -2.28125 1.75 -3.921875q1.75 -1.65625 4.453125 -1.65625q1.6875 0 3.578125 0.828125q0.875 0.390625 1.234375 0.390625q0.40625 0 0.65625 -0.234375q0.265625 -0.25 0.421875 -0.984375l0.578125 0z" fill-rule="nonzero"></path><path fill="#000000" d="m334.8633 261.20035l-0.96875 2.671875l-8.203125 0l0 -0.375q3.625 -3.3125 5.09375 -5.390625q1.484375 -2.09375 1.484375 -3.8281097q0 -1.328125 -0.8125 -2.171875q-0.8125 -0.859375 -1.9375 -0.859375q-1.03125 0 -1.84375 0.609375q-0.8125 0.59375 -1.203125 1.75l-0.390625 0q0.265625 -1.890625 1.328125 -2.90625q1.0625 -1.015625 2.640625 -1.015625q1.703125 0 2.828125 1.09375q1.140625 1.078125 1.140625 2.546875q0 1.0625 -0.5 2.125q-0.75 1.6562347 -2.453125 3.5156097q-2.5625 2.78125 -3.1875 3.359375l3.625 0q1.109375 0 1.546875 -0.078125q0.453125 -0.09375 0.8125 -0.34375q0.359375 -0.25 0.625 -0.703125l0.375 0z" fill-rule="nonzero"></path><path fill="#000000" fill-opacity="0.0" d="m224.71129 212.15224l61.196854 0l0 60.094467l-61.196854 0z" fill-rule="evenodd"></path><path fill="#000000" d="m262.32535 237.73161l-3.046875 10.59375l-0.34375 1.421875q-0.046875 0.203125 -0.046875 0.34375q0 0.25 0.15625 0.4375q0.125 0.140625 0.3125 0.140625q0.203125 0 0.53125 -0.25q0.609375 -0.453125 1.625 -1.875l0.53125 0.375q-1.078125 1.625 -2.21875 2.484375q-1.140625 0.84375 -2.109375 0.84375q-0.671875 0 -1.015625 -0.34375q-0.328125 -0.328125 -0.328125 -0.96875q0 -0.765625 0.34375 -2.015625l0.328125 -1.171875q-2.0468903 2.671875 -3.7656403 3.734375q-1.234375 0.765625 -2.421875 0.765625q-1.140625 0 -1.96875 -0.9375q-0.828125 -0.953125 -0.828125 -2.609375q0 -2.484375 1.484375 -5.234375q1.5 -2.765625 3.796875 -4.421875q1.796875 -1.3125 3.3906403 -1.3125q0.953125 0 1.578125 0.5q0.640625 0.5 0.96875 1.65625l0.5625 -1.78125l2.484375 -0.375zm-5.5625 0.8125q-1.0000153 0 -2.1250153 0.9375q-1.59375 1.328125 -2.84375 3.9375q-1.234375 2.609375 -1.234375 4.71875q0 1.0625 0.53125 1.6875q0.53125 0.609375 1.21875 0.609375q1.703125 0 3.7031403 -2.515625q2.671875 -3.34375 2.671875 -6.859375q0 -1.328125 -0.515625 -1.921875q-0.515625 -0.59375 -1.40625 -0.59375z" fill-rule="nonzero"></path><path fill="#ffffff" d="m216.71129 423.8058l143.55907 0l0 143.55902l-143.55907 0z" fill-rule="evenodd"></path><path stroke="#000000" stroke-width="1.0" stroke-linejoin="round" stroke-linecap="butt" stroke-dasharray="8.0,3.0" d="m216.71129 423.8058l143.55907 0l0 143.55902l-143.55907 0z" fill-rule="evenodd"></path><path fill="#000000" fill-opacity="0.0" d="m224.71129 431.8058l61.196854 0l0 60.094482l-61.196854 0z" fill-rule="evenodd"></path><path fill="#000000" d="m255.75111 449.8539l0 7.328125l-0.578125 0q-0.28125 -2.109375 -1.015625 -3.359375q-0.71875 -1.25 -2.0625 -1.984375q-1.34375 -0.734375 -2.78125 -0.734375q-1.625 0 -2.6875 1.0q-1.0625 0.984375 -1.0625 2.25q0 0.96875 0.671875 1.765625q0.96875 1.171875 4.609375 3.125q2.96875 1.59375 4.046875 2.453125q1.09375 0.84375 1.6718903 2.0q0.59375 1.15625 0.59375 2.421875q0 2.40625 -1.8750153 4.15625q-1.859375 1.734375 -4.796875 1.734375q-0.921875 0 -1.734375 -0.140625q-0.484375 -0.078125 -2.015625 -0.5625q-1.515625 -0.5 -1.921875 -0.5q-0.390625 0 -0.625 0.234375q-0.21875 0.234375 -0.328125 0.96875l-0.578125 0l0 -7.265625l0.578125 0q0.40625 2.28125 1.09375 3.421875q0.6875 1.125 2.09375 1.875q1.421875 0.75 3.109375 0.75q1.953125 0 3.078125 -1.03125q1.140625 -1.03125 1.140625 -2.4375q0 -0.78125 -0.4375 -1.578125q-0.421875 -0.796875 -1.328125 -1.484375q-0.609375 -0.46875 -3.328125 -1.984375q-2.71875 -1.53125 -3.875 -2.4375q-1.140625 -0.90625 -1.734375 -2.0q-0.59375 -1.09375 -0.59375 -2.40625q0 -2.28125 1.75 -3.921875q1.75 -1.65625 4.453125 -1.65625q1.6875 0 3.578125 0.828125q0.875 0.390625 1.234375 0.390625q0.40625 0 0.65625 -0.234375q0.265625 -0.25 0.421875 -0.984375l0.578125 0z" fill-rule="nonzero"></path><path fill="#000000" d="m261.34488 470.9789l3.375 -1.640625l0.34375 0l0 11.734375q0 1.171875 0.09375 1.46875q0.09375 0.28125 0.40625 0.4375q0.3125 0.140625 1.25 0.171875l0 0.375l-5.234375 0l0 -0.375q0.984375 -0.03125 1.265625 -0.171875q0.296875 -0.15625 0.40625 -0.40625q0.109375 -0.25 0.109375 -1.5l0 -7.5q0 -1.515625 -0.09375 -1.953125q-0.078125 -0.328125 -0.265625 -0.484375q-0.1875 -0.15625 -0.453125 -0.15625q-0.375 0 -1.0625 0.328125l-0.140625 -0.328125z" fill-rule="nonzero"></path><path fill="#000000" fill-opacity="0.0" d="m291.0735 431.8058l61.19687 0l0 60.094482l-61.19687 0z" fill-rule="evenodd"></path><path fill="#000000" d="m328.68753 457.38516l-3.046875 10.59375l-0.34375 1.421875q-0.046875 0.203125 -0.046875 0.34375q0 0.25 0.15625 0.4375q0.125 0.140625 0.3125 0.140625q0.203125 0 0.53125 -0.25q0.609375 -0.453125 1.625 -1.875l0.53125 0.375q-1.078125 1.625 -2.21875 2.484375q-1.140625 0.84375 -2.109375 0.84375q-0.671875 0 -1.015625 -0.34375q-0.328125 -0.328125 -0.328125 -0.96875q0 -0.765625 0.34375 -2.015625l0.328125 -1.171875q-2.046875 2.671875 -3.765625 3.734375q-1.234375 0.765625 -2.421875 0.765625q-1.140625 0 -1.96875 -0.9375q-0.828125 -0.953125 -0.828125 -2.609375q0 -2.484375 1.484375 -5.234375q1.5 -2.765625 3.796875 -4.421875q1.796875 -1.3125 3.390625 -1.3125q0.953125 0 1.578125 0.5q0.640625 0.5 0.96875 1.65625l0.5625 -1.78125l2.484375 -0.375zm-5.5625 0.8125q-1.0 0 -2.125 0.9375q-1.59375 1.328125 -2.84375 3.9375q-1.234375 2.609375 -1.234375 4.71875q0 1.0625 0.53125 1.6875q0.53125 0.609375 1.21875 0.609375q1.703125 0 3.703125 -2.515625q2.671875 -3.34375 2.671875 -6.859375q0 -1.328125 -0.515625 -1.921875q-0.515625 -0.59375 -1.40625 -0.59375z" fill-rule="nonzero"></path><path fill="#000000" fill-opacity="0.0" d="m291.0735 499.27036l61.19687 0l0 60.09445l-61.19687 0z" fill-rule="evenodd"></path><path fill="#000000" d="m322.1133 517.3185l0 7.328125l-0.578125 0q-0.28125 -2.109375 -1.015625 -3.359375q-0.71875 -1.25 -2.0625 -1.984375q-1.34375 -0.734375 -2.78125 -0.734375q-1.625 0 -2.6875 1.0q-1.0625 0.984375 -1.0625 2.25q0 0.96875 0.671875 1.765625q0.96875 1.171875 4.609375 3.125q2.96875 1.59375 4.046875 2.453125q1.09375 0.84375 1.671875 2.0q0.59375 1.15625 0.59375 2.421875q0 2.40625 -1.875 4.15625q-1.859375 1.734375 -4.796875 1.734375q-0.921875 0 -1.734375 -0.140625q-0.484375 -0.078125 -2.015625 -0.5625q-1.515625 -0.5 -1.921875 -0.5q-0.390625 0 -0.625 0.234375q-0.21875 0.234375 -0.328125 0.96875l-0.578125 0l0 -7.265625l0.578125 0q0.40625 2.28125 1.09375 3.421875q0.6875 1.125 2.09375 1.875q1.421875 0.75 3.109375 0.75q1.953125 0 3.078125 -1.03125q1.140625 -1.03125 1.140625 -2.4375q0 -0.78125 -0.4375 -1.578125q-0.421875 -0.796875 -1.328125 -1.484375q-0.609375 -0.46875 -3.328125 -1.984375q-2.71875 -1.53125 -3.875 -2.4375q-1.140625 -0.90625 -1.734375 -2.0q-0.59375 -1.09375 -0.59375 -2.40625q0 -2.28125 1.75 -3.921875q1.75 -1.65625 4.453125 -1.65625q1.6875 0 3.578125 0.828125q0.875 0.390625 1.234375 0.390625q0.40625 0 0.65625 -0.234375q0.265625 -0.25 0.421875 -0.984375l0.578125 0z" fill-rule="nonzero"></path><path fill="#000000" d="m334.8633 548.3185l-0.96875 2.671875l-8.203125 0l0 -0.375q3.625 -3.3125 5.09375 -5.390625q1.484375 -2.09375 1.484375 -3.828125q0 -1.328125 -0.8125 -2.171875q-0.8125 -0.859375 -1.9375 -0.859375q-1.03125 0 -1.84375 0.609375q-0.8125 0.59375 -1.203125 1.75l-0.390625 0q0.265625 -1.890625 1.328125 -2.90625q1.0625 -1.015625 2.640625 -1.015625q1.703125 0 2.828125 1.09375q1.140625 1.078125 1.140625 2.546875q0 1.0625 -0.5 2.125q-0.75 1.65625 -2.453125 3.515625q-2.5625 2.78125 -3.1875 3.359375l3.625 0q1.109375 0 1.546875 -0.078125q0.453125 -0.09375 0.8125 -0.34375q0.359375 -0.25 0.625 -0.703125l0.375 0z" fill-rule="nonzero"></path><path fill="#000000" fill-opacity="0.0" d="m224.71129 499.27036l61.196854 0l0 60.09445l-61.196854 0z" fill-rule="evenodd"></path><path fill="#000000" d="m248.99721 533.7716l0.6875 0q0.171875 2.140625 1.34375 3.28125q1.171875 1.140625 3.5 1.359375l0 -9.125q-3.515625 -2.171875 -4.6875 -3.84375q-0.828125 -1.1875 -0.828125 -2.890625q0 -1.921875 1.421875 -3.359375q1.4375 -1.4375 4.09375 -1.734375l0 -1.4375l1.0 0l0 1.4375q1.2812653 0.078125 2.1562653 0.296875q0.453125 0.109375 3.0 1.078125l0 4.671875l-0.609375 0q-0.203125 -2.484375 -1.296875 -3.625q-1.078125 -1.15625 -3.2500153 -1.375l0 7.9375q3.9375153 2.75 5.0468903 4.0625q1.125 1.296875 1.125 3.234375q0 2.15625 -1.640625 3.796875q-1.625 1.640625 -4.5312653 1.890625l0 2.0l-1.0 0l0 -2.0q-1.46875 -0.0625 -2.734375 -0.34375q-1.265625 -0.265625 -2.796875 -0.890625l0 -4.421875zm5.53125 -7.984375l0 -7.265625q-1.5625 0.1875 -2.328125 1.0q-0.75 0.796875 -0.75 2.015625q0 1.140625 0.6875 2.140625q0.6875 0.984375 2.390625 2.109375zm1.0 12.625q1.1718903 -0.203125 1.7968903 -0.578125q0.875 -0.546875 1.375 -1.421875q0.515625 -0.890625 0.515625 -1.890625q0 -1.03125 -0.625 -1.953125q-0.609375 -0.921875 -3.0625153 -2.609375l0 8.453125z" fill-rule="nonzero"></path><path fill="#ffffff" d="m360.27036 280.2467l143.55905 0l0 143.55908l-143.55905 0z" fill-rule="evenodd"></path><path stroke="#000000" stroke-width="1.0" stroke-linejoin="round" stroke-linecap="butt" stroke-dasharray="8.0,3.0" d="m360.27036 280.2467l143.55905 0l0 143.55908l-143.55905 0z" fill-rule="evenodd"></path><path fill="#000000" fill-opacity="0.0" d="m368.27036 288.2467l61.19684 0l0 60.094513l-61.19684 0z" fill-rule="evenodd"></path><path fill="#000000" d="m399.31018 306.29483l0 7.328125l-0.578125 0q-0.28125 -2.109375 -1.015625 -3.359375q-0.71875 -1.25 -2.0625 -1.984375q-1.34375 -0.734375 -2.78125 -0.734375q-1.625 0 -2.6875 1.0q-1.0625 0.984375 -1.0625 2.25q0 0.96875 0.671875 1.765625q0.96875 1.171875 4.609375 3.125q2.96875 1.59375 4.046875 2.453125q1.09375 0.84375 1.671875 2.0q0.59375 1.15625 0.59375 2.421875q0 2.40625 -1.875 4.15625q-1.859375 1.734375 -4.796875 1.734375q-0.921875 0 -1.734375 -0.140625q-0.484375 -0.078125 -2.015625 -0.5625q-1.515625 -0.5 -1.921875 -0.5q-0.390625 0 -0.625 0.234375q-0.21875 0.234375 -0.328125 0.96875l-0.578125 0l0 -7.265625l0.578125 0q0.40625 2.28125 1.09375 3.421875q0.6875 1.125 2.09375 1.875q1.421875 0.75 3.109375 0.75q1.953125 0 3.078125 -1.03125q1.140625 -1.03125 1.140625 -2.4375q0 -0.78125 -0.4375 -1.578125q-0.421875 -0.796875 -1.328125 -1.484375q-0.609375 -0.46875 -3.328125 -1.984375q-2.71875 -1.53125 -3.875 -2.4375q-1.140625 -0.90625 -1.734375 -2.0q-0.59375 -1.09375 -0.59375 -2.40625q0 -2.28125 1.75 -3.921875q1.75 -1.65625 4.453125 -1.65625q1.6875 0 3.578125 0.828125q0.875 0.390625 1.234375 0.390625q0.40625 0 0.65625 -0.234375q0.265625 -0.25 0.421875 -0.984375l0.578125 0z" fill-rule="nonzero"></path><path fill="#000000" d="m404.90393 327.41983l3.375 -1.640625l0.34375 0l0 11.734375q0 1.171875 0.09375 1.46875q0.09375 0.28125 0.40625 0.4375q0.3125 0.140625 1.25 0.171875l0 0.375l-5.234375 0l0 -0.375q0.984375 -0.03125 1.265625 -0.171875q0.296875 -0.15625 0.40625 -0.40625q0.109375 -0.25 0.109375 -1.5l0 -7.5q0 -1.515625 -0.09375 -1.953125q-0.078125 -0.328125 -0.265625 -0.484375q-0.1875 -0.15625 -0.453125 -0.15625q-0.375 0 -1.0625 0.328125l-0.140625 -0.328125z" fill-rule="nonzero"></path><path fill="#000000" fill-opacity="0.0" d="m434.63254 288.2467l61.19687 0l0 60.094513l-61.19687 0z" fill-rule="evenodd"></path><path fill="#000000" d="m472.2466 313.82608l-3.046875 10.59375l-0.34375 1.421875q-0.046875 0.203125 -0.046875 0.34375q0 0.25 0.15625 0.4375q0.125 0.140625 0.3125 0.140625q0.203125 0 0.53125 -0.25q0.609375 -0.453125 1.625 -1.875l0.53125 0.375q-1.078125 1.625 -2.21875 2.484375q-1.140625 0.84375 -2.109375 0.84375q-0.671875 0 -1.0156555 -0.34375q-0.328125 -0.328125 -0.328125 -0.96875q0 -0.765625 0.34378052 -2.015625l0.328125 -1.171875q-2.0469055 2.671875 -3.7656555 3.734375q-1.234375 0.765625 -2.421875 0.765625q-1.140625 0 -1.96875 -0.9375q-0.828125 -0.953125 -0.828125 -2.609375q0 -2.484375 1.484375 -5.234375q1.5 -2.765625 3.796875 -4.421875q1.796875 -1.3125 3.3906555 -1.3125q0.953125 0 1.578125 0.5q0.640625 0.5 0.96875 1.65625l0.5625 -1.78125l2.484375 -0.375zm-5.5625 0.8125q-1.0000305 0 -2.1250305 0.9375q-1.59375 1.328125 -2.84375 3.9375q-1.234375 2.609375 -1.234375 4.71875q0 1.0625 0.53125 1.6875q0.53125 0.609375 1.21875 0.609375q1.703125 0 3.703125 -2.515625q2.6719055 -3.34375 2.6719055 -6.859375q0 -1.328125 -0.515625 -1.921875q-0.515625 -0.59375 -1.40625 -0.59375z" fill-rule="nonzero"></path><path fill="#000000" fill-opacity="0.0" d="m434.63254 355.71127l61.19687 0l0 60.094513l-61.19687 0z" fill-rule="evenodd"></path><path fill="#000000" d="m458.91846 390.21252l0.6875 0q0.171875 2.140625 1.34375 3.28125q1.171875 1.140625 3.5 1.359375l0 -9.125q-3.515625 -2.171875 -4.6875 -3.84375q-0.828125 -1.1875 -0.828125 -2.890625q0 -1.921875 1.421875 -3.359375q1.4375 -1.4375 4.09375 -1.734375l0 -1.4375l1.0 0l0 1.4375q1.2812805 0.078125 2.1562805 0.296875q0.453125 0.109375 3.0 1.078125l0 4.671875l-0.609375 0q-0.203125 -2.484375 -1.296875 -3.625q-1.078125 -1.15625 -3.2500305 -1.375l0 7.9375q3.9375305 2.75 5.0469055 4.0625q1.125 1.296875 1.125 3.234375q0 2.15625 -1.640625 3.796875q-1.625 1.640625 -4.5312805 1.890625l0 2.0l-1.0 0l0 -2.0q-1.46875 -0.0625 -2.734375 -0.34375q-1.265625 -0.265625 -2.796875 -0.890625l0 -4.421875zm5.53125 -7.984375l0 -7.265625q-1.5625 0.1875 -2.328125 1.0q-0.75 0.796875 -0.75 2.015625q0 1.140625 0.6875 2.140625q0.6875 0.984375 2.390625 2.109375zm1.0 12.625q1.171875 -0.203125 1.7969055 -0.578125q0.875 -0.546875 1.375 -1.421875q0.515625 -0.890625 0.515625 -1.890625q0 -1.03125 -0.625 -1.953125q-0.609375 -0.921875 -3.0625305 -2.609375l0 8.453125z" fill-rule="nonzero"></path><path fill="#000000" fill-opacity="0.0" d="m368.27036 355.71127l61.19684 0l0 60.094513l-61.19684 0z" fill-rule="evenodd"></path><path fill="#000000" d="m399.31018 373.7594l0 7.328125l-0.578125 0q-0.28125 -2.109375 -1.015625 -3.359375q-0.71875 -1.25 -2.0625 -1.984375q-1.34375 -0.734375 -2.78125 -0.734375q-1.625 0 -2.6875 1.0q-1.0625 0.984375 -1.0625 2.25q0 0.96875 0.671875 1.765625q0.96875 1.171875 4.609375 3.125q2.96875 1.59375 4.046875 2.453125q1.09375 0.84375 1.671875 2.0q0.59375 1.15625 0.59375 2.421875q0 2.40625 -1.875 4.15625q-1.859375 1.734375 -4.796875 1.734375q-0.921875 0 -1.734375 -0.140625q-0.484375 -0.078125 -2.015625 -0.5625q-1.515625 -0.5 -1.921875 -0.5q-0.390625 0 -0.625 0.234375q-0.21875 0.234375 -0.328125 0.96875l-0.578125 0l0 -7.265625l0.578125 0q0.40625 2.28125 1.09375 3.421875q0.6875 1.125 2.09375 1.875q1.421875 0.75 3.109375 0.75q1.953125 0 3.078125 -1.03125q1.140625 -1.03125 1.140625 -2.4375q0 -0.78125 -0.4375 -1.578125q-0.421875 -0.796875 -1.328125 -1.484375q-0.609375 -0.46875 -3.328125 -1.984375q-2.71875 -1.53125 -3.875 -2.4375q-1.140625 -0.90625 -1.734375 -2.0q-0.59375 -1.09375 -0.59375 -2.40625q0 -2.28125 1.75 -3.921875q1.75 -1.65625 4.453125 -1.65625q1.6875 0 3.578125 0.828125q0.875 0.390625 1.234375 0.390625q0.40625 0 0.65625 -0.234375q0.265625 -0.25 0.421875 -0.984375l0.578125 0z" fill-rule="nonzero"></path><path fill="#000000" d="m412.06018 404.7594l-0.96875 2.671875l-8.203125 0l0 -0.375q3.625 -3.3125 5.09375 -5.390625q1.484375 -2.09375 1.484375 -3.828125q0 -1.328125 -0.8125 -2.171875q-0.8125 -0.859375 -1.9375 -0.859375q-1.03125 0 -1.84375 0.609375q-0.8125 0.59375 -1.203125 1.75l-0.390625 0q0.265625 -1.890625 1.328125 -2.90625q1.0625 -1.015625 2.640625 -1.015625q1.703125 0 2.828125 1.09375q1.140625 1.078125 1.140625 2.546875q0 1.0625 -0.5 2.125q-0.75 1.65625 -2.453125 3.515625q-2.5625 2.78125 -3.1875 3.359375l3.625 0q1.109375 0 1.546875 -0.078125q0.453125 -0.09375 0.8125 -0.34375q0.359375 -0.25 0.625 -0.703125l0.375 0z" fill-rule="nonzero"></path><path fill="#ffffff" d="m647.3963 424.45145l-143.55902 0l0 -143.55905l143.55902 0z" fill-rule="evenodd"></path><path stroke="#000000" stroke-width="1.0" stroke-linejoin="round" stroke-linecap="butt" stroke-dasharray="8.0,3.0" d="m647.3963 424.45145l-143.55902 0l0 -143.55905l143.55902 0z" fill-rule="evenodd"></path><path fill="#000000" fill-opacity="0.0" d="m639.3963 416.45145l-61.19684 0l0 -60.094482l61.19684 0z" fill-rule="evenodd"></path><path fill="#000000" d="m608.3565 398.40332l0 -7.328125l0.578125 0q0.28125 2.109375 1.015625 3.359375q0.71875 1.25 2.0625 1.984375q1.34375 0.734375 2.78125 0.734375q1.625 0 2.6875 -1.0q1.0625 -0.984375 1.0625 -2.25q0 -0.96875 -0.671875 -1.765625q-0.96875 -1.171875 -4.609375 -3.125q-2.96875 -1.59375 -4.046875 -2.453125q-1.09375 -0.84375 -1.671875 -2.0q-0.59375 -1.15625 -0.59375 -2.421875q0 -2.40625 1.875 -4.15625q1.859375 -1.734375 4.796875 -1.734375q0.921875 0 1.734375 0.140625q0.484375 0.078125 2.015625 0.5625q1.515625 0.5 1.921875 0.5q0.390625 0 0.625 -0.234375q0.21875 -0.234375 0.328125 -0.96875l0.578125 0l0 7.265625l-0.578125 0q-0.40625 -2.28125 -1.09375 -3.421875q-0.6875 -1.125 -2.09375 -1.875q-1.421875 -0.75 -3.109375 -0.75q-1.953125 0 -3.078125 1.03125q-1.140625 1.03125 -1.140625 2.4375q0 0.78125 0.4375 1.578125q0.421875 0.796875 1.328125 1.484375q0.609375 0.46875 3.328125 1.984375q2.71875 1.53125 3.875 2.4375q1.140625 0.90625 1.734375 2.0q0.59375 1.09375 0.59375 2.40625q0 2.28125 -1.75 3.921875q-1.75 1.65625 -4.453125 1.65625q-1.6875 0 -3.578125 -0.828125q-0.875 -0.390625 -1.234375 -0.390625q-0.40625 0 -0.65625 0.234375q-0.265625 0.25 -0.421875 0.984375l-0.578125 0z" fill-rule="nonzero"></path><path fill="#000000" d="m602.76276 377.27832l-3.375 1.640625l-0.34375 0l0 -11.734375q0 -1.171875 -0.09375 -1.46875q-0.09375 -0.28125 -0.40625 -0.4375q-0.3125 -0.140625 -1.25 -0.171875l0 -0.375l5.234375 0l0 0.375q-0.984375 0.03125 -1.265625 0.171875q-0.296875 0.15625 -0.40625 0.40625q-0.109375 0.25 -0.109375 1.5l0 7.5q0 1.515625 0.09375 1.953125q0.078125 0.328125 0.265625 0.484375q0.1875 0.15625 0.453125 0.15625q0.375 0 1.0625 -0.328125l0.140625 0.328125z" fill-rule="nonzero"></path><path fill="#000000" fill-opacity="0.0" d="m573.0341 416.45145l-61.19684 0l0 -60.094482l61.19684 0z" fill-rule="evenodd"></path><path fill="#000000" d="m541.99426 398.40332l0 -7.328125l0.578125 0q0.28125 2.109375 1.015625 3.359375q0.71875 1.25 2.0625 1.984375q1.34375 0.734375 2.78125 0.734375q1.625 0 2.6875 -1.0q1.0625 -0.984375 1.0625 -2.25q0 -0.96875 -0.671875 -1.765625q-0.96875 -1.171875 -4.609375 -3.125q-2.96875 -1.59375 -4.046875 -2.453125q-1.09375 -0.84375 -1.671875 -2.0q-0.59375 -1.15625 -0.59375 -2.421875q0 -2.40625 1.875 -4.15625q1.859375 -1.734375 4.796875 -1.734375q0.921875 0 1.734375 0.140625q0.484375 0.078125 2.015625 0.5625q1.515625 0.5 1.921875 0.5q0.390625 0 0.625 -0.234375q0.21875 -0.234375 0.328125 -0.96875l0.578125 0l0 7.265625l-0.578125 0q-0.40625 -2.28125 -1.09375 -3.421875q-0.6875 -1.125 -2.09375 -1.875q-1.421875 -0.75 -3.109375 -0.75q-1.953125 0 -3.078125 1.03125q-1.140625 1.03125 -1.140625 2.4375q0 0.78125 0.4375 1.578125q0.421875 0.796875 1.328125 1.484375q0.609375 0.46875 3.328125 1.984375q2.71875 1.53125 3.875 2.4375q1.140625 0.90625 1.734375 2.0q0.59375 1.09375 0.59375 2.40625q0 2.28125 -1.75 3.921875q-1.75 1.65625 -4.453125 1.65625q-1.6875 0 -3.578125 -0.828125q-0.875 -0.390625 -1.234375 -0.390625q-0.40625 0 -0.65625 0.234375q-0.265625 0.25 -0.421875 0.984375l-0.578125 0z" fill-rule="nonzero"></path><path fill="#000000" d="m529.24426 367.40332l0.96875 -2.671875l8.203125 0l0 0.375q-3.625 3.3125 -5.09375 5.390625q-1.484375 2.09375 -1.484375 3.828125q0 1.328125 0.8125 2.171875q0.8125 0.859375 1.9375 0.859375q1.03125 0 1.84375 -0.609375q0.8125 -0.59375 1.203125 -1.75l0.390625 0q-0.265625 1.890625 -1.328125 2.90625q-1.0625 1.015625 -2.640625 1.015625q-1.703125 0 -2.828125 -1.09375q-1.140625 -1.078125 -1.140625 -2.546875q0 -1.0625 0.5 -2.125q0.75 -1.65625 2.453125 -3.515625q2.5625 -2.78125 3.1875 -3.359375l-3.625 0q-1.109375 0 -1.546875 0.078125q-0.453125 0.09375 -0.8125 0.34375q-0.359375 0.25 -0.625 0.703125l-0.375 0z" fill-rule="nonzero"></path><path fill="#000000" fill-opacity="0.0" d="m573.0341 348.98688l-61.19684 0l0 -60.094482l61.19684 0z" fill-rule="evenodd"></path><path fill="#000000" d="m535.42004 323.4075l3.046875 -10.59375l0.34375 -1.421875q0.046875 -0.203125 0.046875 -0.34375q0 -0.25 -0.15625 -0.4375q-0.125 -0.140625 -0.3125 -0.140625q-0.203125 0 -0.53125 0.25q-0.609375 0.453125 -1.625 1.875l-0.53125 -0.375q1.078125 -1.625 2.21875 -2.484375q1.140625 -0.84375 2.109375 -0.84375q0.671875 0 1.015625 0.34375q0.328125 0.328125 0.328125 0.96875q0 0.765625 -0.34375 2.015625l-0.328125 1.171875q2.046875 -2.671875 3.765625 -3.734375q1.234375 -0.765625 2.421875 -0.765625q1.140625 0 1.96875 0.9375q0.828125 0.953125 0.828125 2.609375q0 2.484375 -1.484375 5.234375q-1.5 2.765625 -3.796875 4.421875q-1.796875 1.3125 -3.390625 1.3125q-0.953125 0 -1.578125 -0.5q-0.640625 -0.5 -0.96875 -1.65625l-0.5625 1.78125l-2.484375 0.375zm5.5625 -0.8125q1.0 0 2.125 -0.9375q1.59375 -1.328125 2.84375 -3.9375q1.234375 -2.609375 1.234375 -4.71875q0 -1.0625 -0.53125 -1.6875q-0.53125 -0.609375 -1.21875 -0.609375q-1.703125 0 -3.703125 2.515625q-2.671875 3.34375 -2.671875 6.859375q0 1.328125 0.515625 1.921875q0.515625 0.59375 1.40625 0.59375z" fill-rule="nonzero"></path><path fill="#000000" fill-opacity="0.0" d="m639.3963 348.98688l-61.19684 0l0 -60.094482l61.19684 0z" fill-rule="evenodd"></path><path fill="#000000" d="m615.1104 314.48563l-0.6875 0q-0.171875 -2.140625 -1.34375 -3.28125q-1.171875 -1.140625 -3.5 -1.359375l0 9.125q3.515625 2.171875 4.6875 3.84375q0.828125 1.1875 0.828125 2.890625q0 1.921875 -1.421875 3.359375q-1.4375 1.4375 -4.09375 1.734375l0 1.4375l-1.0 0l0 -1.4375q-1.28125 -0.078125 -2.15625 -0.296875q-0.453125 -0.109375 -3.0 -1.078125l0 -4.671875l0.609375 0q0.203125 2.484375 1.296875 3.625q1.078125 1.15625 3.25 1.375l0 -7.9375q-3.9375 -2.75 -5.046875 -4.0625q-1.125 -1.296875 -1.125 -3.234375q0 -2.15625 1.640625 -3.796875q1.625 -1.640625 4.53125 -1.890625l0 -2.0l1.0 0l0 2.0q1.46875 0.0625 2.734375 0.34375q1.265625 0.265625 2.796875 0.890625l0 4.421875zm-5.53125 7.984375l0 7.265625q1.5625 -0.1875 2.328125 -1.0q0.75 -0.796875 0.75 -2.015625q0 -1.140625 -0.6875 -2.140625q-0.6875 -0.984375 -2.390625 -2.109375zm-1.0 -12.625q-1.171875 0.203125 -1.796875 0.578125q-0.875 0.546875 -1.375 1.421875q-0.515625 0.890625 -0.515625 1.890625q0 1.03125 0.625 1.953125q0.609375 0.921875 3.0625 2.609375l0 -8.453125z" fill-rule="nonzero"></path><path fill="#ffffff" d="m659.9055 252.05249l15.023621 15.577301l0 -7.5118103l0 0c18.79718 1.4064941 34.35614 5.3657837 42.103394 10.71405l0 0c7.341736 -5.068268 6.896057 -10.853851 -1.2181396 -15.814041c-8.114258 -4.96019 -23.072083 -8.590759 -40.885254 -9.923645l0 -7.5118103z" fill-rule="evenodd"></path><path fill="#cbcbcb" d="m722.2362 263.32022c0 10.371643 -27.906372 18.77951 -62.33069 18.77951l0 15.023621l0 0c34.424316 0 62.33069 -8.407867 62.33069 -18.77951z" fill-rule="evenodd"></path><path fill="#000000" fill-opacity="0.0" d="m722.2362 263.32022c0 10.371643 -27.906372 18.77951 -62.33069 18.77951l0 15.023621l0 0c34.424316 0 62.33069 -8.407867 62.33069 -18.77951l0 -15.023621c0 -8.628189 -19.513794 -16.14621 -47.307068 -18.225876l0 -7.5118103l-15.023621 14.469955l15.023621 15.577301l0 -7.5118103l0 0c18.79718 1.4064941 34.35614 5.3657837 42.103394 10.71405" fill-rule="evenodd"></path><path stroke="#000000" stroke-width="1.0" stroke-linejoin="round" stroke-linecap="butt" d="m722.2362 263.32022c0 10.371643 -27.906372 18.77951 -62.33069 18.77951l0 15.023621l0 0c34.424316 0 62.33069 -8.407867 62.33069 -18.77951l0 -15.023621c0 -8.628189 -19.513794 -16.14621 -47.307068 -18.225876l0 -7.5118103l-15.023621 14.469955l15.023621 15.577301l0 -7.5118103l0 0c18.79718 1.4064941 34.35614 5.3657837 42.103394 10.71405" fill-rule="evenodd"></path><path fill="#000000" fill-opacity="0.0" d="m340.52493 399.50656l19.748047 0l0 24.944885l-19.748047 0z" fill-rule="evenodd"></path><path fill="#000000" d="m350.46243 411.4053l1.296875 -0.625l0.125 0l0 4.46875q0 0.453125 0.03125 0.5625q0.046875 0.109375 0.15625 0.171875q0.125 0.046875 0.484375 0.0625l0 0.140625l-2.0 0l0 -0.140625q0.375 -0.015625 0.484375 -0.0625q0.109375 -0.0625 0.15625 -0.15625q0.046875 -0.09375 0.046875 -0.578125l0 -2.859375q0 -0.578125 -0.046875 -0.734375q-0.03125 -0.125 -0.109375 -0.1875q-0.0625 -0.0625 -0.15625 -0.0625q-0.15625 0 -0.40625 0.125l-0.0625 -0.125z" fill-rule="nonzero"></path><path fill="#000000" fill-opacity="0.0" d="m484.0866 399.50656l19.748047 0l0 24.944885l-19.748047 0z" fill-rule="evenodd"></path><path fill="#000000" d="m493.49286 411.88968q0.234375 -0.53125 0.578125 -0.8125q0.34375 -0.296875 0.859375 -0.296875q0.640625 0 0.96875 0.40625q0.265625 0.3125 0.265625 0.671875q0 0.578125 -0.734375 1.1875q0.5 0.1875 0.75 0.546875q0.25 0.359375 0.25 0.84375q0 0.6875 -0.4375 1.1875q-0.578125 0.65625 -1.65625 0.65625q-0.53125 0 -0.734375 -0.125q-0.1875 -0.140625 -0.1875 -0.296875q0 -0.109375 0.09375 -0.1875q0.09375 -0.09375 0.21875 -0.09375q0.09375 0 0.203125 0.03125q0.0625 0.015625 0.296875 0.140625q0.234375 0.125 0.328125 0.140625q0.140625 0.046875 0.296875 0.046875q0.40625 0 0.703125 -0.296875q0.296875 -0.3125 0.296875 -0.734375q0 -0.3125 -0.140625 -0.609375q-0.109375 -0.21875 -0.21875 -0.328125q-0.171875 -0.15625 -0.46875 -0.28125q-0.296875 -0.125 -0.59375 -0.125l-0.125 0l0 -0.125q0.3125 -0.03125 0.609375 -0.21875q0.3125 -0.1875 0.453125 -0.4375q0.140625 -0.265625 0.140625 -0.578125q0 -0.390625 -0.25 -0.640625q-0.25 -0.25 -0.625 -0.25q-0.609375 0 -1.015625 0.640625l-0.125 -0.0625z" fill-rule="nonzero"></path><path fill="#000000" fill-opacity="0.0" d="m523.57745 305.1916l-19.748047 0l0 -24.944885l19.748047 0z" fill-rule="evenodd"></path><path fill="#000000" d="m510.98367 293.91785l0 -0.140625q0.515625 -0.046875 0.84375 -0.203125q0.32815552 -0.15625 0.6562805 -0.484375q0.3125 -0.3125 0.53125 -0.703125q0.203125 -0.375 0.34375 -0.921875q-0.5625 0.390625 -1.140625 0.390625q-0.5312805 0 -0.9219055 -0.4375q-0.40625 -0.4375 -0.40625 -1.125q0 -0.65625 0.390625 -1.203125q0.484375 -0.671875 1.2812805 -0.671875q0.546875 0 0.921875 0.359375q0.75 0.703125 0.75 1.8125q0 0.71875 -0.28125 1.359375q-0.296875 0.640625 -0.8125 1.125q-0.53125 0.5 -1.015625 0.671875q-0.48440552 0.171875 -0.9062805 0.171875l-0.234375 0zm2.4375305 -2.734375q0.0625 -0.53125 0.0625 -0.84375q0 -0.375 -0.125 -0.828125q-0.140625 -0.4375 -0.421875 -0.6875q-0.203125 -0.1875 -0.484375 -0.1875q-0.34375 0 -0.6094055 0.3125q-0.265625 0.328125 -0.265625 0.921875q0 0.671875 0.265625 1.15625q0.26565552 0.484375 0.7500305 0.484375q0.15625 0 0.328125 -0.0625q0.171875 -0.0625 0.5 -0.265625z" fill-rule="nonzero"></path><path fill="#000000" fill-opacity="0.0" d="m340.52493 255.93176l19.748047 0l0 24.944885l-19.748047 0z" fill-rule="evenodd"></path><path fill="#000000" d="m353.24368 270.65863l0 0.546875l-0.703125 0l0 1.40625l-0.640625 0l0 -1.40625l-2.25 0l0 -0.5l2.453125 -3.5l0.4375 0l0 3.453125l0.703125 0zm-1.34375 0l0 -2.625l-1.859375 2.625l1.859375 0z" fill-rule="nonzero"></path><path fill="#000000" fill-opacity="0.0" d="m199.7979 399.50656l19.748032 0l0 24.944885l-19.748032 0z" fill-rule="evenodd"></path><path fill="#000000" d="m212.46977 415.17093l-0.375 1.015625l-3.125 0l0 -0.140625q1.375 -1.265625 1.9375 -2.0625q0.5625 -0.796875 0.5625 -1.453125q0 -0.5 -0.3125 -0.828125q-0.296875 -0.328125 -0.734375 -0.328125q-0.390625 0 -0.703125 0.234375q-0.296875 0.21875 -0.453125 0.671875l-0.140625 0q0.09375 -0.734375 0.5 -1.109375q0.40625 -0.390625 1.015625 -0.390625q0.640625 0 1.0625 0.421875q0.4375 0.40625 0.4375 0.96875q0 0.40625 -0.1875 0.796875q-0.28125 0.640625 -0.9375 1.34375q-0.96875 1.0625 -1.21875 1.28125l1.390625 0q0.421875 0 0.59375 -0.03125q0.171875 -0.03125 0.296875 -0.125q0.140625 -0.09375 0.25 -0.265625l0.140625 0z" fill-rule="nonzero"></path><path fill="#000000" fill-opacity="0.0" d="m340.52493 543.7113l19.748047 0l0 24.944885l-19.748047 0z" fill-rule="evenodd"></path><path fill="#000000" d="m352.99368 555.0944l-0.296875 0.65625l-1.59375 0l-0.34375 0.71875q1.03125 0.15625 1.640625 0.765625q0.515625 0.53125 0.515625 1.25q0 0.421875 -0.171875 0.78125q-0.171875 0.34375 -0.4375 0.59375q-0.25 0.25 -0.5625 0.40625q-0.453125 0.21875 -0.921875 0.21875q-0.484375 0 -0.703125 -0.15625q-0.203125 -0.171875 -0.203125 -0.359375q0 -0.109375 0.078125 -0.1875q0.09375 -0.09375 0.234375 -0.09375q0.09375 0 0.171875 0.03125q0.078125 0.03125 0.265625 0.15625q0.296875 0.203125 0.59375 0.203125q0.453125 0 0.796875 -0.34375q0.34375 -0.34375 0.34375 -0.84375q0 -0.484375 -0.3125 -0.890625q-0.296875 -0.421875 -0.84375 -0.640625q-0.421875 -0.1875 -1.15625 -0.203125l1.015625 -2.0625l1.890625 0z" fill-rule="nonzero"></path></g></svg>

